<?xml version="1.0" encoding="UTF-8"?><svg xmlns:svg="http://www.w3.org/2000/svg" xmlns="http://www.w3.org/2000/svg" xmlns:xlink="http://www.w3.org/1999/xlink" version="2.0" width="1200" height="2700" ><style >
svg {
  font-family: Helvetica, Arial, sans-serif;
  font-size: 11px;
}
rect {
  stroke-linecap: butt;
  stroke-width: 3;
  stroke: #fff;
/*  stroke-opacity: 1; */
}
rect:hover {
  stroke: #fff;
/*  stroke-opacity: 1; /*
}
polygon { fill: #000; }</style><defs ><polygon id="ahead" points="0 0, -12 4, -12 -4" /><filter id="glow" x="0" y="0" ><feGaussianBlur in="SourceAlpha" stdDeviation="2" result="blurred" /><feFlood flood-color="#fff" /><feComposite operator="in" in2="blurred" /><feComponentTransfer ><feFuncA type="linear" slope="10" intercept="0" /></feComponentTransfer><feMerge ><feMergeNode /><feMergeNode in="SourceGraphic" /></feMerge></filter></defs><g ><text x="60.0" y="20.0" text-anchor="middle" alignment-baseline="middle" fill="#000" >c10</text><text x="60.0" y="1020.0" text-anchor="middle" alignment-baseline="middle" fill="#aaa" >c10</text><text x="60.0" y="2020.0" text-anchor="middle" alignment-baseline="middle" fill="#aaa" >c10</text><text x="180.0" y="20.0" text-anchor="middle" alignment-baseline="middle" fill="#000" >c11</text><text x="180.0" y="1020.0" text-anchor="middle" alignment-baseline="middle" fill="#aaa" >c11</text><text x="180.0" y="2020.0" text-anchor="middle" alignment-baseline="middle" fill="#aaa" >c11</text><text x="300.0" y="20.0" text-anchor="middle" alignment-baseline="middle" fill="#000" >c12</text><text x="300.0" y="1020.0" text-anchor="middle" alignment-baseline="middle" fill="#aaa" >c12</text><text x="300.0" y="2020.0" text-anchor="middle" alignment-baseline="middle" fill="#aaa" >c12</text><text x="420.0" y="20.0" text-anchor="middle" alignment-baseline="middle" fill="#000" >c13</text><text x="420.0" y="1020.0" text-anchor="middle" alignment-baseline="middle" fill="#aaa" >c13</text><text x="420.0" y="2020.0" text-anchor="middle" alignment-baseline="middle" fill="#aaa" >c13</text><text x="540.0" y="20.0" text-anchor="middle" alignment-baseline="middle" fill="#000" >c14</text><text x="540.0" y="1020.0" text-anchor="middle" alignment-baseline="middle" fill="#aaa" >c14</text><text x="540.0" y="2020.0" text-anchor="middle" alignment-baseline="middle" fill="#aaa" >c14</text><text x="660.0" y="20.0" text-anchor="middle" alignment-baseline="middle" fill="#000" >n1</text><text x="660.0" y="1020.0" text-anchor="middle" alignment-baseline="middle" fill="#aaa" >n1</text><text x="660.0" y="2020.0" text-anchor="middle" alignment-baseline="middle" fill="#aaa" >n1</text><text x="780.0" y="20.0" text-anchor="middle" alignment-baseline="middle" fill="#000" >n2</text><text x="780.0" y="1020.0" text-anchor="middle" alignment-baseline="middle" fill="#aaa" >n2</text><text x="780.0" y="2020.0" text-anchor="middle" alignment-baseline="middle" fill="#aaa" >n2</text><text x="900.0" y="20.0" text-anchor="middle" alignment-baseline="middle" fill="#000" >n3</text><text x="900.0" y="1020.0" text-anchor="middle" alignment-baseline="middle" fill="#aaa" >n3</text><text x="900.0" y="2020.0" text-anchor="middle" alignment-baseline="middle" fill="#aaa" >n3</text><text x="1020.0" y="20.0" text-anchor="middle" alignment-baseline="middle" fill="#000" >n4</text><text x="1020.0" y="1020.0" text-anchor="middle" alignment-baseline="middle" fill="#aaa" >n4</text><text x="1020.0" y="2020.0" text-anchor="middle" alignment-baseline="middle" fill="#aaa" >n4</text><text x="1140.0" y="20.0" text-anchor="middle" alignment-baseline="middle" fill="#000" >n5</text><text x="1140.0" y="1020.0" text-anchor="middle" alignment-baseline="middle" fill="#aaa" >n5</text><text x="1140.0" y="2020.0" text-anchor="middle" alignment-baseline="middle" fill="#aaa" >n5</text></g><g ><line stroke="#ccc" x1="60.0" y1="30.0" x2="60.0" y2="2610.0" /><line stroke="#ccc" x1="180.0" y1="30.0" x2="180.0" y2="2610.0" /><line stroke="#ccc" x1="300.0" y1="30.0" x2="300.0" y2="2610.0" /><line stroke="#ccc" x1="420.0" y1="30.0" x2="420.0" y2="2610.0" /><line stroke="#ccc" x1="540.0" y1="30.0" x2="540.0" y2="2610.0" /><line stroke="#ccc" x1="660.0" y1="30.0" x2="660.0" y2="2610.0" /><line stroke="#ccc" x1="780.0" y1="30.0" x2="780.0" y2="2610.0" /><line stroke="#ccc" x1="900.0" y1="30.0" x2="900.0" y2="2610.0" /><line stroke="#ccc" x1="1020.0" y1="30.0" x2="1020.0" y2="2610.0" /><line stroke="#ccc" x1="1140.0" y1="30.0" x2="1140.0" y2="2610.0" /></g><g ><g transform="translate(60.0 50.0) rotate(1.0609116902642277) " ><rect x="0" y="-2.5" height="5" width="1076.1851693112621" fill="#81BFFC" ><title >c10 → n5 {:echo "Please echo 77", :type "echo", :msg_id 1}</title></rect><use xlink:href="#ahead" x="1080.1851693112621" y="0" /><text text-anchor="middle" x="540.0925846556311" y="-4" transform="" filter="url(#glow)" style="fill: #fff" >echo {:echo "Please echo 77"}</text><text text-anchor="middle" x="540.0925846556311" y="-4" transform="" >echo {:echo "Please echo 77"}</text></g><g transform="translate(1140.0 90.0) rotate(178.93908830973578) " ><rect x="0" y="-2.5" height="5" width="1076.1851693112621" fill="#81BFFC" ><title >n5 → c10 {:type "echo_ok", :echo "Please echo 77", :msg_id 1, :in_reply_to 1}</title></rect><use xlink:href="#ahead" x="1080.1851693112621" y="0" /><text text-anchor="middle" x="540.0925846556311" y="-4" transform="rotate(180 540.0925846556311 0)" filter="url(#glow)" style="fill: #fff" >echo_ok {:echo "Please echo 77"}</text><text text-anchor="middle" x="540.0925846556311" y="-4" transform="rotate(180 540.0925846556311 0)" >echo_ok {:echo "Please echo 77"}</text></g><g transform="translate(60.0 130.0) rotate(2.1210963966614536) " ><rect x="0" y="-2.5" height="5" width="1076.7404868885037" fill="#81BFFC" ><title >c10 → n5 {:echo "Please echo 61", :type "echo", :msg_id 2}</title></rect><use xlink:href="#ahead" x="1080.7404868885037" y="0" /><text text-anchor="middle" x="540.3702434442519" y="-4" transform="" filter="url(#glow)" style="fill: #fff" >echo {:echo "Please echo 61"}</text><text text-anchor="middle" x="540.3702434442519" y="-4" transform="" >echo {:echo "Please echo 61"}</text></g><g transform="translate(180.0 150.0) rotate(3.179830119864234) " ><rect x="0" y="-2.5" height="5" width="717.1102550927978" fill="#81BFFC" ><title >c11 → n3 {:echo "Please echo 69", :type "echo", :msg_id 1}</title></rect><use xlink:href="#ahead" x="721.1102550927978" y="0" /><text text-anchor="middle" x="360.5551275463989" y="-4" transform="" filter="url(#glow)" style="fill: #fff" >echo {:echo "Please echo 69"}</text><text text-anchor="middle" x="360.5551275463989" y="-4" transform="" >echo {:echo "Please echo 69"}</text></g><g transform="translate(1140.0 210.0) rotate(177.87890360333853) " ><rect x="0" y="-2.5" height="5" width="1076.7404868885037" fill="#81BFFC" ><title >n5 → c10 {:type "echo_ok", :echo "Please echo 61", :msg_id 2, :in_reply_to 2}</title></rect><use xlink:href="#ahead" x="1080.7404868885037" y="0" /><text text-anchor="middle" x="540.3702434442519" y="-4" transform="rotate(180 540.3702434442519 0)" filter="url(#glow)" style="fill: #fff" >echo_ok {:echo "Please echo 61"}</text><text text-anchor="middle" x="540.3702434442519" y="-4" transform="rotate(180 540.3702434442519 0)" >echo_ok {:echo "Please echo 61"}</text></g><g transform="translate(900.0 230.0) rotate(176.82016988013578) " ><rect x="0" y="-2.5" height="5" width="717.1102550927978" fill="#81BFFC" ><title >n3 → c11 {:type "echo_ok", :echo "Please echo 69", :msg_id 1, :in_reply_to 1}</title></rect><use xlink:href="#ahead" x="721.1102550927978" y="0" /><text text-anchor="middle" x="360.5551275463989" y="-4" transform="rotate(180 360.5551275463989 0)" filter="url(#glow)" style="fill: #fff" >echo_ok {:echo "Please echo 69"}</text><text text-anchor="middle" x="360.5551275463989" y="-4" transform="rotate(180 360.5551275463989 0)" >echo_ok {:echo "Please echo 69"}</text></g><g transform="translate(300.0 290.0) rotate(1.5911402711945872) " ><rect x="0" y="-2.5" height="5" width="716.2777242147642" fill="#81BFFC" ><title >c12 → n4 {:echo "Please echo 24", :type "echo", :msg_id 1}</title></rect><use xlink:href="#ahead" x="720.2777242147642" y="0" /><text text-anchor="middle" x="360.1388621073821" y="-4" transform="" filter="url(#glow)" style="fill: #fff" >echo {:echo "Please echo 24"}</text><text text-anchor="middle" x="360.1388621073821" y="-4" transform="" >echo {:echo "Please echo 24"}</text></g><g transform="translate(1020.0 330.0) rotate(178.4088597288054) " ><rect x="0" y="-2.5" height="5" width="716.2777242147642" fill="#81BFFC" ><title >n4 → c12 {:type "echo_ok", :echo "Please echo 24", :msg_id 1, :in_reply_to 1}</title></rect><use xlink:href="#ahead" x="720.2777242147642" y="0" /><text text-anchor="middle" x="360.1388621073821" y="-4" transform="rotate(180 360.1388621073821 0)" filter="url(#glow)" style="fill: #fff" >echo_ok {:echo "Please echo 24"}</text><text text-anchor="middle" x="360.1388621073821" y="-4" transform="rotate(180 360.1388621073821 0)" >echo_ok {:echo "Please echo 24"}</text></g><g transform="translate(420.0 370.0) rotate(3.179830119864234) " ><rect x="0" y="-2.5" height="5" width="356.5551275463989" fill="#81BFFC" ><title >c13 → n2 {:echo "Please echo 93", :type "echo", :msg_id 1}</title></rect><use xlink:href="#ahead" x="360.5551275463989" y="0" /><text text-anchor="middle" x="180.27756377319946" y="-4" transform="" filter="url(#glow)" style="fill: #fff" >echo {:echo "Please echo 93"}</text><text text-anchor="middle" x="180.27756377319946" y="-4" transform="" >echo {:echo "Please echo 93"}</text></g><g transform="translate(780.0 410.0) rotate(176.82016988013578) " ><rect x="0" y="-2.5" height="5" width="356.5551275463989" fill="#81BFFC" ><title >n2 → c13 {:type "echo_ok", :echo "Please echo 93", :msg_id 1, :in_reply_to 1}</title></rect><use xlink:href="#ahead" x="360.5551275463989" y="0" /><text text-anchor="middle" x="180.27756377319946" y="-4" transform="rotate(180 180.27756377319946 0)" filter="url(#glow)" style="fill: #fff" >echo_ok {:echo "Please echo 93"}</text><text text-anchor="middle" x="180.27756377319946" y="-4" transform="rotate(180 180.27756377319946 0)" >echo_ok {:echo "Please echo 93"}</text></g><g transform="translate(300.0 450.0) rotate(1.5911402711945872) " ><rect x="0" y="-2.5" height="5" width="716.2777242147642" fill="#81BFFC" ><title >c12 → n4 {:echo "Please echo 60", :type "echo", :msg_id 2}</title></rect><use xlink:href="#ahead" x="720.2777242147642" y="0" /><text text-anchor="middle" x="360.1388621073821" y="-4" transform="" filter="url(#glow)" style="fill: #fff" >echo {:echo "Please echo 60"}</text><text text-anchor="middle" x="360.1388621073821" y="-4" transform="" >echo {:echo "Please echo 60"}</text></g><g transform="translate(1020.0 490.0) rotate(178.4088597288054) " ><rect x="0" y="-2.5" height="5" width="716.2777242147642" fill="#81BFFC" ><title >n4 → c12 {:type "echo_ok", :echo "Please echo 60", :msg_id 2, :in_reply_to 2}</title></rect><use xlink:href="#ahead" x="720.2777242147642" y="0" /><text text-anchor="middle" x="360.1388621073821" y="-4" transform="rotate(180 360.1388621073821 0)" filter="url(#glow)" style="fill: #fff" >echo_ok {:echo "Please echo 60"}</text><text text-anchor="middle" x="360.1388621073821" y="-4" transform="rotate(180 360.1388621073821 0)" >echo_ok {:echo "Please echo 60"}</text></g><g transform="translate(420.0 530.0) rotate(3.179830119864234) " ><rect x="0" y="-2.5" height="5" width="356.5551275463989" fill="#81BFFC" ><title >c13 → n2 {:echo "Please echo 9", :type "echo", :msg_id 2}</title></rect><use xlink:href="#ahead" x="360.5551275463989" y="0" /><text text-anchor="middle" x="180.27756377319946" y="-4" transform="" filter="url(#glow)" style="fill: #fff" >echo {:echo "Please echo 9"}</text><text text-anchor="middle" x="180.27756377319946" y="-4" transform="" >echo {:echo "Please echo 9"}</text></g><g transform="translate(780.0 570.0) rotate(176.82016988013578) " ><rect x="0" y="-2.5" height="5" width="356.5551275463989" fill="#81BFFC" ><title >n2 → c13 {:type "echo_ok", :echo "Please echo 9", :msg_id 2, :in_reply_to 2}</title></rect><use xlink:href="#ahead" x="360.5551275463989" y="0" /><text text-anchor="middle" x="180.27756377319946" y="-4" transform="rotate(180 180.27756377319946 0)" filter="url(#glow)" style="fill: #fff" >echo_ok {:echo "Please echo 9"}</text><text text-anchor="middle" x="180.27756377319946" y="-4" transform="rotate(180 180.27756377319946 0)" >echo_ok {:echo "Please echo 9"}</text></g><g transform="translate(540.0 610.0) rotate(9.462322208025618) " ><rect x="0" y="-2.5" height="5" width="117.6552506059644" fill="#81BFFC" ><title >c14 → n1 {:echo "Please echo 17", :type "echo", :msg_id 1}</title></rect><use xlink:href="#ahead" x="121.6552506059644" y="0" /><text text-anchor="middle" x="60.8276253029822" y="-4" transform="" filter="url(#glow)" style="fill: #fff" >echo {:echo "Please echo 17"}</text><text text-anchor="middle" x="60.8276253029822" y="-4" transform="" >echo {:echo "Please echo 17"}</text></g><g transform="translate(660.0 650.0) rotate(170.53767779197437) " ><rect x="0" y="-2.5" height="5" width="117.6552506059644" fill="#81BFFC" ><title >n1 → c14 {:type "echo_ok", :echo "Please echo 17", :msg_id 1, :in_reply_to 1}</title></rect><use xlink:href="#ahead" x="121.6552506059644" y="0" /><text text-anchor="middle" x="60.8276253029822" y="-4" transform="rotate(180 60.8276253029822 0)" filter="url(#glow)" style="fill: #fff" >echo_ok {:echo "Please echo 17"}</text><text text-anchor="middle" x="60.8276253029822" y="-4" transform="rotate(180 60.8276253029822 0)" >echo_ok {:echo "Please echo 17"}</text></g><g transform="translate(300.0 690.0) rotate(1.5911402711945872) " ><rect x="0" y="-2.5" height="5" width="716.2777242147642" fill="#81BFFC" ><title >c12 → n4 {:echo "Please echo 62", :type "echo", :msg_id 3}</title></rect><use xlink:href="#ahead" x="720.2777242147642" y="0" /><text text-anchor="middle" x="360.1388621073821" y="-4" transform="" filter="url(#glow)" style="fill: #fff" >echo {:echo "Please echo 62"}</text><text text-anchor="middle" x="360.1388621073821" y="-4" transform="" >echo {:echo "Please echo 62"}</text></g><g transform="translate(420.0 730.0) rotate(3.179830119864234) " ><rect x="0" y="-2.5" height="5" width="356.5551275463989" fill="#81BFFC" ><title >c13 → n2 {:echo "Please echo 11", :type "echo", :msg_id 3}</title></rect><use xlink:href="#ahead" x="360.5551275463989" y="0" /><text text-anchor="middle" x="180.27756377319946" y="-4" transform="" filter="url(#glow)" style="fill: #fff" >echo {:echo "Please echo 11"}</text><text text-anchor="middle" x="180.27756377319946" y="-4" transform="" >echo {:echo "Please echo 11"}</text></g><g transform="translate(1020.0 770.0) rotate(178.4088597288054) " ><rect x="0" y="-2.5" height="5" width="716.2777242147642" fill="#81BFFC" ><title >n4 → c12 {:type "echo_ok", :echo "Please echo 62", :msg_id 3, :in_reply_to 3}</title></rect><use xlink:href="#ahead" x="720.2777242147642" y="0" /><text text-anchor="middle" x="360.1388621073821" y="-4" transform="rotate(180 360.1388621073821 0)" filter="url(#glow)" style="fill: #fff" >echo_ok {:echo "Please echo 62"}</text><text text-anchor="middle" x="360.1388621073821" y="-4" transform="rotate(180 360.1388621073821 0)" >echo_ok {:echo "Please echo 62"}</text></g><g transform="translate(780.0 810.0) rotate(176.82016988013578) " ><rect x="0" y="-2.5" height="5" width="356.5551275463989" fill="#81BFFC" ><title >n2 → c13 {:type "echo_ok", :echo "Please echo 11", :msg_id 3, :in_reply_to 3}</title></rect><use xlink:href="#ahead" x="360.5551275463989" y="0" /><text text-anchor="middle" x="180.27756377319946" y="-4" transform="rotate(180 180.27756377319946 0)" filter="url(#glow)" style="fill: #fff" >echo_ok {:echo "Please echo 11"}</text><text text-anchor="middle" x="180.27756377319946" y="-4" transform="rotate(180 180.27756377319946 0)" >echo_ok {:echo "Please echo 11"}</text></g><g transform="translate(420.0 850.0) rotate(3.179830119864234) " ><rect x="0" y="-2.5" height="5" width="356.5551275463989" fill="#81BFFC" ><title >c13 → n2 {:echo "Please echo 115", :type "echo", :msg_id 4}</title></rect><use xlink:href="#ahead" x="360.5551275463989" y="0" /><text text-anchor="middle" x="180.27756377319946" y="-4" transform="" filter="url(#glow)" style="fill: #fff" >echo {:echo "Please echo 115"}</text><text text-anchor="middle" x="180.27756377319946" y="-4" transform="" >echo {:echo "Please echo 115"}</text></g><g transform="translate(780.0 890.0) rotate(176.82016988013578) " ><rect x="0" y="-2.5" height="5" width="356.5551275463989" fill="#81BFFC" ><title >n2 → c13 {:type "echo_ok", :echo "Please echo 115", :msg_id 4, :in_reply_to 4}</title></rect><use xlink:href="#ahead" x="360.5551275463989" y="0" /><text text-anchor="middle" x="180.27756377319946" y="-4" transform="rotate(180 180.27756377319946 0)" filter="url(#glow)" style="fill: #fff" >echo_ok {:echo "Please echo 115"}</text><text text-anchor="middle" x="180.27756377319946" y="-4" transform="rotate(180 180.27756377319946 0)" >echo_ok {:echo "Please echo 115"}</text></g><g transform="translate(420.0 930.0) rotate(3.179830119864234) " ><rect x="0" y="-2.5" height="5" width="356.5551275463989" fill="#81BFFC" ><title >c13 → n2 {:echo "Please echo 58", :type "echo", :msg_id 5}</title></rect><use xlink:href="#ahead" x="360.5551275463989" y="0" /><text text-anchor="middle" x="180.27756377319946" y="-4" transform="" filter="url(#glow)" style="fill: #fff" >echo {:echo "Please echo 58"}</text><text text-anchor="middle" x="180.27756377319946" y="-4" transform="" >echo {:echo "Please echo 58"}</text></g><g transform="translate(780.0 970.0) rotate(176.82016988013578) " ><rect x="0" y="-2.5" height="5" width="356.5551275463989" fill="#81BFFC" ><title >n2 → c13 {:type "echo_ok", :echo "Please echo 58", :msg_id 5, :in_reply_to 5}</title></rect><use xlink:href="#ahead" x="360.5551275463989" y="0" /><text text-anchor="middle" x="180.27756377319946" y="-4" transform="rotate(180 180.27756377319946 0)" filter="url(#glow)" style="fill: #fff" >echo_ok {:echo "Please echo 58"}</text><text text-anchor="middle" x="180.27756377319946" y="-4" transform="rotate(180 180.27756377319946 0)" >echo_ok {:echo "Please echo 58"}</text></g><g transform="translate(60.0 1010.0) rotate(1.0609116902642277) " ><rect x="0" y="-2.5" height="5" width="1076.1851693112621" fill="#81BFFC" ><title >c10 → n5 {:echo "Please echo 78", :type "echo", :msg_id 3}</title></rect><use xlink:href="#ahead" x="1080.1851693112621" y="0" /><text text-anchor="middle" x="540.0925846556311" y="-4" transform="" filter="url(#glow)" style="fill: #fff" >echo {:echo "Please echo 78"}</text><text text-anchor="middle" x="540.0925846556311" y="-4" transform="" >echo {:echo "Please echo 78"}</text></g><g transform="translate(1140.0 1050.0) rotate(178.93908830973578) " ><rect x="0" y="-2.5" height="5" width="1076.1851693112621" fill="#81BFFC" ><title >n5 → c10 {:type "echo_ok", :echo "Please echo 78", :msg_id 3, :in_reply_to 3}</title></rect><use xlink:href="#ahead" x="1080.1851693112621" y="0" /><text text-anchor="middle" x="540.0925846556311" y="-4" transform="rotate(180 540.0925846556311 0)" filter="url(#glow)" style="fill: #fff" >echo_ok {:echo "Please echo 78"}</text><text text-anchor="middle" x="540.0925846556311" y="-4" transform="rotate(180 540.0925846556311 0)" >echo_ok {:echo "Please echo 78"}</text></g><g transform="translate(180.0 1090.0) rotate(1.5911402711945872) " ><rect x="0" y="-2.5" height="5" width="716.2777242147642" fill="#81BFFC" ><title >c11 → n3 {:echo "Please echo 105", :type "echo", :msg_id 2}</title></rect><use xlink:href="#ahead" x="720.2777242147642" y="0" /><text text-anchor="middle" x="360.1388621073821" y="-4" transform="" filter="url(#glow)" style="fill: #fff" >echo {:echo "Please echo 105"}</text><text text-anchor="middle" x="360.1388621073821" y="-4" transform="" >echo {:echo "Please echo 105"}</text></g><g transform="translate(900.0 1130.0) rotate(178.4088597288054) " ><rect x="0" y="-2.5" height="5" width="716.2777242147642" fill="#81BFFC" ><title >n3 → c11 {:type "echo_ok", :echo "Please echo 105", :msg_id 2, :in_reply_to 2}</title></rect><use xlink:href="#ahead" x="720.2777242147642" y="0" /><text text-anchor="middle" x="360.1388621073821" y="-4" transform="rotate(180 360.1388621073821 0)" filter="url(#glow)" style="fill: #fff" >echo_ok {:echo "Please echo 105"}</text><text text-anchor="middle" x="360.1388621073821" y="-4" transform="rotate(180 360.1388621073821 0)" >echo_ok {:echo "Please echo 105"}</text></g><g transform="translate(300.0 1170.0) rotate(1.5911402711945872) " ><rect x="0" y="-2.5" height="5" width="716.2777242147642" fill="#81BFFC" ><title >c12 → n4 {:echo "Please echo 88", :type "echo", :msg_id 4}</title></rect><use xlink:href="#ahead" x="720.2777242147642" y="0" /><text text-anchor="middle" x="360.1388621073821" y="-4" transform="" filter="url(#glow)" style="fill: #fff" >echo {:echo "Please echo 88"}</text><text text-anchor="middle" x="360.1388621073821" y="-4" transform="" >echo {:echo "Please echo 88"}</text></g><g transform="translate(1020.0 1210.0) rotate(178.4088597288054) " ><rect x="0" y="-2.5" height="5" width="716.2777242147642" fill="#81BFFC" ><title >n4 → c12 {:type "echo_ok", :echo "Please echo 88", :msg_id 4, :in_reply_to 4}</title></rect><use xlink:href="#ahead" x="720.2777242147642" y="0" /><text text-anchor="middle" x="360.1388621073821" y="-4" transform="rotate(180 360.1388621073821 0)" filter="url(#glow)" style="fill: #fff" >echo_ok {:echo "Please echo 88"}</text><text text-anchor="middle" x="360.1388621073821" y="-4" transform="rotate(180 360.1388621073821 0)" >echo_ok {:echo "Please echo 88"}</text></g><g transform="translate(180.0 1250.0) rotate(1.5911402711945872) " ><rect x="0" y="-2.5" height="5" width="716.2777242147642" fill="#81BFFC" ><title >c11 → n3 {:echo "Please echo 3", :type "echo", :msg_id 3}</title></rect><use xlink:href="#ahead" x="720.2777242147642" y="0" /><text text-anchor="middle" x="360.1388621073821" y="-4" transform="" filter="url(#glow)" style="fill: #fff" >echo {:echo "Please echo 3"}</text><text text-anchor="middle" x="360.1388621073821" y="-4" transform="" >echo {:echo "Please echo 3"}</text></g><g transform="translate(900.0 1290.0) rotate(178.4088597288054) " ><rect x="0" y="-2.5" height="5" width="716.2777242147642" fill="#81BFFC" ><title >n3 → c11 {:type "echo_ok", :echo "Please echo 3", :msg_id 3, :in_reply_to 3}</title></rect><use xlink:href="#ahead" x="720.2777242147642" y="0" /><text text-anchor="middle" x="360.1388621073821" y="-4" transform="rotate(180 360.1388621073821 0)" filter="url(#glow)" style="fill: #fff" >echo_ok {:echo "Please echo 3"}</text><text text-anchor="middle" x="360.1388621073821" y="-4" transform="rotate(180 360.1388621073821 0)" >echo_ok {:echo "Please echo 3"}</text></g><g transform="translate(60.0 1330.0) rotate(1.0609116902642277) " ><rect x="0" y="-2.5" height="5" width="1076.1851693112621" fill="#81BFFC" ><title >c10 → n5 {:echo "Please echo 55", :type "echo", :msg_id 4}</title></rect><use xlink:href="#ahead" x="1080.1851693112621" y="0" /><text text-anchor="middle" x="540.0925846556311" y="-4" transform="" filter="url(#glow)" style="fill: #fff" >echo {:echo "Please echo 55"}</text><text text-anchor="middle" x="540.0925846556311" y="-4" transform="" >echo {:echo "Please echo 55"}</text></g><g transform="translate(1140.0 1370.0) rotate(178.93908830973578) " ><rect x="0" y="-2.5" height="5" width="1076.1851693112621" fill="#81BFFC" ><title >n5 → c10 {:type "echo_ok", :echo "Please echo 55", :msg_id 4, :in_reply_to 4}</title></rect><use xlink:href="#ahead" x="1080.1851693112621" y="0" /><text text-anchor="middle" x="540.0925846556311" y="-4" transform="rotate(180 540.0925846556311 0)" filter="url(#glow)" style="fill: #fff" >echo_ok {:echo "Please echo 55"}</text><text text-anchor="middle" x="540.0925846556311" y="-4" transform="rotate(180 540.0925846556311 0)" >echo_ok {:echo "Please echo 55"}</text></g><g transform="translate(300.0 1410.0) rotate(1.5911402711945872) " ><rect x="0" y="-2.5" height="5" width="716.2777242147642" fill="#81BFFC" ><title >c12 → n4 {:echo "Please echo 9", :type "echo", :msg_id 5}</title></rect><use xlink:href="#ahead" x="720.2777242147642" y="0" /><text text-anchor="middle" x="360.1388621073821" y="-4" transform="" filter="url(#glow)" style="fill: #fff" >echo {:echo "Please echo 9"}</text><text text-anchor="middle" x="360.1388621073821" y="-4" transform="" >echo {:echo "Please echo 9"}</text></g><g transform="translate(1020.0 1450.0) rotate(178.4088597288054) " ><rect x="0" y="-2.5" height="5" width="716.2777242147642" fill="#81BFFC" ><title >n4 → c12 {:type "echo_ok", :echo "Please echo 9", :msg_id 5, :in_reply_to 5}</title></rect><use xlink:href="#ahead" x="720.2777242147642" y="0" /><text text-anchor="middle" x="360.1388621073821" y="-4" transform="rotate(180 360.1388621073821 0)" filter="url(#glow)" style="fill: #fff" >echo_ok {:echo "Please echo 9"}</text><text text-anchor="middle" x="360.1388621073821" y="-4" transform="rotate(180 360.1388621073821 0)" >echo_ok {:echo "Please echo 9"}</text></g><g transform="translate(300.0 1490.0) rotate(1.5911402711945872) " ><rect x="0" y="-2.5" height="5" width="716.2777242147642" fill="#81BFFC" ><title >c12 → n4 {:echo "Please echo 105", :type "echo", :msg_id 6}</title></rect><use xlink:href="#ahead" x="720.2777242147642" y="0" /><text text-anchor="middle" x="360.1388621073821" y="-4" transform="" filter="url(#glow)" style="fill: #fff" >echo {:echo "Please echo 105"}</text><text text-anchor="middle" x="360.1388621073821" y="-4" transform="" >echo {:echo "Please echo 105"}</text></g><g transform="translate(1020.0 1530.0) rotate(178.4088597288054) " ><rect x="0" y="-2.5" height="5" width="716.2777242147642" fill="#81BFFC" ><title >n4 → c12 {:type "echo_ok", :echo "Please echo 105", :msg_id 6, :in_reply_to 6}</title></rect><use xlink:href="#ahead" x="720.2777242147642" y="0" /><text text-anchor="middle" x="360.1388621073821" y="-4" transform="rotate(180 360.1388621073821 0)" filter="url(#glow)" style="fill: #fff" >echo_ok {:echo "Please echo 105"}</text><text text-anchor="middle" x="360.1388621073821" y="-4" transform="rotate(180 360.1388621073821 0)" >echo_ok {:echo "Please echo 105"}</text></g><g transform="translate(540.0 1570.0) rotate(9.462322208025618) " ><rect x="0" y="-2.5" height="5" width="117.6552506059644" fill="#81BFFC" ><title >c14 → n1 {:echo "Please echo 48", :type "echo", :msg_id 2}</title></rect><use xlink:href="#ahead" x="121.6552506059644" y="0" /><text text-anchor="middle" x="60.8276253029822" y="-4" transform="" filter="url(#glow)" style="fill: #fff" >echo {:echo "Please echo 48"}</text><text text-anchor="middle" x="60.8276253029822" y="-4" transform="" >echo {:echo "Please echo 48"}</text></g><g transform="translate(660.0 1610.0) rotate(170.53767779197437) " ><rect x="0" y="-2.5" height="5" width="117.6552506059644" fill="#81BFFC" ><title >n1 → c14 {:type "echo_ok", :echo "Please echo 48", :msg_id 2, :in_reply_to 2}</title></rect><use xlink:href="#ahead" x="121.6552506059644" y="0" /><text text-anchor="middle" x="60.8276253029822" y="-4" transform="rotate(180 60.8276253029822 0)" filter="url(#glow)" style="fill: #fff" >echo_ok {:echo "Please echo 48"}</text><text text-anchor="middle" x="60.8276253029822" y="-4" transform="rotate(180 60.8276253029822 0)" >echo_ok {:echo "Please echo 48"}</text></g><g transform="translate(300.0 1650.0) rotate(1.5911402711945872) " ><rect x="0" y="-2.5" height="5" width="716.2777242147642" fill="#81BFFC" ><title >c12 → n4 {:echo "Please echo 104", :type "echo", :msg_id 7}</title></rect><use xlink:href="#ahead" x="720.2777242147642" y="0" /><text text-anchor="middle" x="360.1388621073821" y="-4" transform="" filter="url(#glow)" style="fill: #fff" >echo {:echo "Please echo 104"}</text><text text-anchor="middle" x="360.1388621073821" y="-4" transform="" >echo {:echo "Please echo 104"}</text></g><g transform="translate(1020.0 1690.0) rotate(178.4088597288054) " ><rect x="0" y="-2.5" height="5" width="716.2777242147642" fill="#81BFFC" ><title >n4 → c12 {:type "echo_ok", :echo "Please echo 104", :msg_id 7, :in_reply_to 7}</title></rect><use xlink:href="#ahead" x="720.2777242147642" y="0" /><text text-anchor="middle" x="360.1388621073821" y="-4" transform="rotate(180 360.1388621073821 0)" filter="url(#glow)" style="fill: #fff" >echo_ok {:echo "Please echo 104"}</text><text text-anchor="middle" x="360.1388621073821" y="-4" transform="rotate(180 360.1388621073821 0)" >echo_ok {:echo "Please echo 104"}</text></g><g transform="translate(60.0 1730.0) rotate(1.0609116902642277) " ><rect x="0" y="-2.5" height="5" width="1076.1851693112621" fill="#81BFFC" ><title >c10 → n5 {:echo "Please echo 1", :type "echo", :msg_id 5}</title></rect><use xlink:href="#ahead" x="1080.1851693112621" y="0" /><text text-anchor="middle" x="540.0925846556311" y="-4" transform="" filter="url(#glow)" style="fill: #fff" >echo {:echo "Please echo 1"}</text><text text-anchor="middle" x="540.0925846556311" y="-4" transform="" >echo {:echo "Please echo 1"}</text></g><g transform="translate(1140.0 1770.0) rotate(178.93908830973578) " ><rect x="0" y="-2.5" height="5" width="1076.1851693112621" fill="#81BFFC" ><title >n5 → c10 {:type "echo_ok", :echo "Please echo 1", :msg_id 5, :in_reply_to 5}</title></rect><use xlink:href="#ahead" x="1080.1851693112621" y="0" /><text text-anchor="middle" x="540.0925846556311" y="-4" transform="rotate(180 540.0925846556311 0)" filter="url(#glow)" style="fill: #fff" >echo_ok {:echo "Please echo 1"}</text><text text-anchor="middle" x="540.0925846556311" y="-4" transform="rotate(180 540.0925846556311 0)" >echo_ok {:echo "Please echo 1"}</text></g><g transform="translate(420.0 1810.0) rotate(3.179830119864234) " ><rect x="0" y="-2.5" height="5" width="356.5551275463989" fill="#81BFFC" ><title >c13 → n2 {:echo "Please echo 18", :type "echo", :msg_id 6}</title></rect><use xlink:href="#ahead" x="360.5551275463989" y="0" /><text text-anchor="middle" x="180.27756377319946" y="-4" transform="" filter="url(#glow)" style="fill: #fff" >echo {:echo "Please echo 18"}</text><text text-anchor="middle" x="180.27756377319946" y="-4" transform="" >echo {:echo "Please echo 18"}</text></g><g transform="translate(780.0 1850.0) rotate(176.82016988013578) " ><rect x="0" y="-2.5" height="5" width="356.5551275463989" fill="#81BFFC" ><title >n2 → c13 {:type "echo_ok", :echo "Please echo 18", :msg_id 6, :in_reply_to 6}</title></rect><use xlink:href="#ahead" x="360.5551275463989" y="0" /><text text-anchor="middle" x="180.27756377319946" y="-4" transform="rotate(180 180.27756377319946 0)" filter="url(#glow)" style="fill: #fff" >echo_ok {:echo "Please echo 18"}</text><text text-anchor="middle" x="180.27756377319946" y="-4" transform="rotate(180 180.27756377319946 0)" >echo_ok {:echo "Please echo 18"}</text></g><g transform="translate(300.0 1890.0) rotate(1.5911402711945872) " ><rect x="0" y="-2.5" height="5" width="716.2777242147642" fill="#81BFFC" ><title >c12 → n4 {:echo "Please echo 96", :type "echo", :msg_id 8}</title></rect><use xlink:href="#ahead" x="720.2777242147642" y="0" /><text text-anchor="middle" x="360.1388621073821" y="-4" transform="" filter="url(#glow)" style="fill: #fff" >echo {:echo "Please echo 96"}</text><text text-anchor="middle" x="360.1388621073821" y="-4" transform="" >echo {:echo "Please echo 96"}</text></g><g transform="translate(1020.0 1930.0) rotate(178.4088597288054) " ><rect x="0" y="-2.5" height="5" width="716.2777242147642" fill="#81BFFC" ><title >n4 → c12 {:type "echo_ok", :echo "Please echo 96", :msg_id 8, :in_reply_to 8}</title></rect><use xlink:href="#ahead" x="720.2777242147642" y="0" /><text text-anchor="middle" x="360.1388621073821" y="-4" transform="rotate(180 360.1388621073821 0)" filter="url(#glow)" style="fill: #fff" >echo_ok {:echo "Please echo 96"}</text><text text-anchor="middle" x="360.1388621073821" y="-4" transform="rotate(180 360.1388621073821 0)" >echo_ok {:echo "Please echo 96"}</text></g><g transform="translate(60.0 1970.0) rotate(1.0609116902642277) " ><rect x="0" y="-2.5" height="5" width="1076.1851693112621" fill="#81BFFC" ><title >c10 → n5 {:echo "Please echo 68", :type "echo", :msg_id 6}</title></rect><use xlink:href="#ahead" x="1080.1851693112621" y="0" /><text text-anchor="middle" x="540.0925846556311" y="-4" transform="" filter="url(#glow)" style="fill: #fff" >echo {:echo "Please echo 68"}</text><text text-anchor="middle" x="540.0925846556311" y="-4" transform="" >echo {:echo "Please echo 68"}</text></g><g transform="translate(1140.0 2010.0) rotate(178.93908830973578) " ><rect x="0" y="-2.5" height="5" width="1076.1851693112621" fill="#81BFFC" ><title >n5 → c10 {:type "echo_ok", :echo "Please echo 68", :msg_id 6, :in_reply_to 6}</title></rect><use xlink:href="#ahead" x="1080.1851693112621" y="0" /><text text-anchor="middle" x="540.0925846556311" y="-4" transform="rotate(180 540.0925846556311 0)" filter="url(#glow)" style="fill: #fff" >echo_ok {:echo "Please echo 68"}</text><text text-anchor="middle" x="540.0925846556311" y="-4" transform="rotate(180 540.0925846556311 0)" >echo_ok {:echo "Please echo 68"}</text></g><g transform="translate(180.0 2050.0) rotate(1.5911402711945872) " ><rect x="0" y="-2.5" height="5" width="716.2777242147642" fill="#81BFFC" ><title >c11 → n3 {:echo "Please echo 67", :type "echo", :msg_id 4}</title></rect><use xlink:href="#ahead" x="720.2777242147642" y="0" /><text text-anchor="middle" x="360.1388621073821" y="-4" transform="" filter="url(#glow)" style="fill: #fff" >echo {:echo "Please echo 67"}</text><text text-anchor="middle" x="360.1388621073821" y="-4" transform="" >echo {:echo "Please echo 67"}</text></g><g transform="translate(900.0 2090.0) rotate(178.4088597288054) " ><rect x="0" y="-2.5" height="5" width="716.2777242147642" fill="#81BFFC" ><title >n3 → c11 {:type "echo_ok", :echo "Please echo 67", :msg_id 4, :in_reply_to 4}</title></rect><use xlink:href="#ahead" x="720.2777242147642" y="0" /><text text-anchor="middle" x="360.1388621073821" y="-4" transform="rotate(180 360.1388621073821 0)" filter="url(#glow)" style="fill: #fff" >echo_ok {:echo "Please echo 67"}</text><text text-anchor="middle" x="360.1388621073821" y="-4" transform="rotate(180 360.1388621073821 0)" >echo_ok {:echo "Please echo 67"}</text></g><g transform="translate(420.0 2130.0) rotate(3.179830119864234) " ><rect x="0" y="-2.5" height="5" width="356.5551275463989" fill="#81BFFC" ><title >c13 → n2 {:echo "Please echo 93", :type "echo", :msg_id 7}</title></rect><use xlink:href="#ahead" x="360.5551275463989" y="0" /><text text-anchor="middle" x="180.27756377319946" y="-4" transform="" filter="url(#glow)" style="fill: #fff" >echo {:echo "Please echo 93"}</text><text text-anchor="middle" x="180.27756377319946" y="-4" transform="" >echo {:echo "Please echo 93"}</text></g><g transform="translate(780.0 2170.0) rotate(176.82016988013578) " ><rect x="0" y="-2.5" height="5" width="356.5551275463989" fill="#81BFFC" ><title >n2 → c13 {:type "echo_ok", :echo "Please echo 93", :msg_id 7, :in_reply_to 7}</title></rect><use xlink:href="#ahead" x="360.5551275463989" y="0" /><text text-anchor="middle" x="180.27756377319946" y="-4" transform="rotate(180 180.27756377319946 0)" filter="url(#glow)" style="fill: #fff" >echo_ok {:echo "Please echo 93"}</text><text text-anchor="middle" x="180.27756377319946" y="-4" transform="rotate(180 180.27756377319946 0)" >echo_ok {:echo "Please echo 93"}</text></g><g transform="translate(300.0 2210.0) rotate(1.5911402711945872) " ><rect x="0" y="-2.5" height="5" width="716.2777242147642" fill="#81BFFC" ><title >c12 → n4 {:echo "Please echo 38", :type "echo", :msg_id 9}</title></rect><use xlink:href="#ahead" x="720.2777242147642" y="0" /><text text-anchor="middle" x="360.1388621073821" y="-4" transform="" filter="url(#glow)" style="fill: #fff" >echo {:echo "Please echo 38"}</text><text text-anchor="middle" x="360.1388621073821" y="-4" transform="" >echo {:echo "Please echo 38"}</text></g><g transform="translate(1020.0 2250.0) rotate(178.4088597288054) " ><rect x="0" y="-2.5" height="5" width="716.2777242147642" fill="#81BFFC" ><title >n4 → c12 {:type "echo_ok", :echo "Please echo 38", :msg_id 9, :in_reply_to 9}</title></rect><use xlink:href="#ahead" x="720.2777242147642" y="0" /><text text-anchor="middle" x="360.1388621073821" y="-4" transform="rotate(180 360.1388621073821 0)" filter="url(#glow)" style="fill: #fff" >echo_ok {:echo "Please echo 38"}</text><text text-anchor="middle" x="360.1388621073821" y="-4" transform="rotate(180 360.1388621073821 0)" >echo_ok {:echo "Please echo 38"}</text></g><g transform="translate(300.0 2290.0) rotate(1.5911402711945872) " ><rect x="0" y="-2.5" height="5" width="716.2777242147642" fill="#81BFFC" ><title >c12 → n4 {:echo "Please echo 27", :type "echo", :msg_id 10}</title></rect><use xlink:href="#ahead" x="720.2777242147642" y="0" /><text text-anchor="middle" x="360.1388621073821" y="-4" transform="" filter="url(#glow)" style="fill: #fff" >echo {:echo "Please echo 27"}</text><text text-anchor="middle" x="360.1388621073821" y="-4" transform="" >echo {:echo "Please echo 27"}</text></g><g transform="translate(1020.0 2330.0) rotate(178.4088597288054) " ><rect x="0" y="-2.5" height="5" width="716.2777242147642" fill="#81BFFC" ><title >n4 → c12 {:type "echo_ok", :echo "Please echo 27", :msg_id 10, :in_reply_to 10}</title></rect><use xlink:href="#ahead" x="720.2777242147642" y="0" /><text text-anchor="middle" x="360.1388621073821" y="-4" transform="rotate(180 360.1388621073821 0)" filter="url(#glow)" style="fill: #fff" >echo_ok {:echo "Please echo 27"}</text><text text-anchor="middle" x="360.1388621073821" y="-4" transform="rotate(180 360.1388621073821 0)" >echo_ok {:echo "Please echo 27"}</text></g><g transform="translate(540.0 2370.0) rotate(9.462322208025618) " ><rect x="0" y="-2.5" height="5" width="117.6552506059644" fill="#81BFFC" ><title >c14 → n1 {:echo "Please echo 91", :type "echo", :msg_id 3}</title></rect><use xlink:href="#ahead" x="121.6552506059644" y="0" /><text text-anchor="middle" x="60.8276253029822" y="-4" transform="" filter="url(#glow)" style="fill: #fff" >echo {:echo "Please echo 91"}</text><text text-anchor="middle" x="60.8276253029822" y="-4" transform="" >echo {:echo "Please echo 91"}</text></g><g transform="translate(660.0 2410.0) rotate(170.53767779197437) " ><rect x="0" y="-2.5" height="5" width="117.6552506059644" fill="#81BFFC" ><title >n1 → c14 {:type "echo_ok", :echo "Please echo 91", :msg_id 3, :in_reply_to 3}</title></rect><use xlink:href="#ahead" x="121.6552506059644" y="0" /><text text-anchor="middle" x="60.8276253029822" y="-4" transform="rotate(180 60.8276253029822 0)" filter="url(#glow)" style="fill: #fff" >echo_ok {:echo "Please echo 91"}</text><text text-anchor="middle" x="60.8276253029822" y="-4" transform="rotate(180 60.8276253029822 0)" >echo_ok {:echo "Please echo 91"}</text></g><g transform="translate(300.0 2450.0) rotate(1.5911402711945872) " ><rect x="0" y="-2.5" height="5" width="716.2777242147642" fill="#81BFFC" ><title >c12 → n4 {:echo "Please echo 64", :type "echo", :msg_id 11}</title></rect><use xlink:href="#ahead" x="720.2777242147642" y="0" /><text text-anchor="middle" x="360.1388621073821" y="-4" transform="" filter="url(#glow)" style="fill: #fff" >echo {:echo "Please echo 64"}</text><text text-anchor="middle" x="360.1388621073821" y="-4" transform="" >echo {:echo "Please echo 64"}</text></g><g transform="translate(1020.0 2490.0) rotate(178.4088597288054) " ><rect x="0" y="-2.5" height="5" width="716.2777242147642" fill="#81BFFC" ><title >n4 → c12 {:type "echo_ok", :echo "Please echo 64", :msg_id 11, :in_reply_to 11}</title></rect><use xlink:href="#ahead" x="720.2777242147642" y="0" /><text text-anchor="middle" x="360.1388621073821" y="-4" transform="rotate(180 360.1388621073821 0)" filter="url(#glow)" style="fill: #fff" >echo_ok {:echo "Please echo 64"}</text><text text-anchor="middle" x="360.1388621073821" y="-4" transform="rotate(180 360.1388621073821 0)" >echo_ok {:echo "Please echo 64"}</text></g><g transform="translate(540.0 2530.0) rotate(9.462322208025618) " ><rect x="0" y="-2.5" height="5" width="117.6552506059644" fill="#81BFFC" ><title >c14 → n1 {:echo "Please echo 67", :type "echo", :msg_id 4}</title></rect><use xlink:href="#ahead" x="121.6552506059644" y="0" /><text text-anchor="middle" x="60.8276253029822" y="-4" transform="" filter="url(#glow)" style="fill: #fff" >echo {:echo "Please echo 67"}</text><text text-anchor="middle" x="60.8276253029822" y="-4" transform="" >echo {:echo "Please echo 67"}</text></g><g transform="translate(660.0 2570.0) rotate(170.53767779197437) " ><rect x="0" y="-2.5" height="5" width="117.6552506059644" fill="#81BFFC" ><title >n1 → c14 {:type "echo_ok", :echo "Please echo 67", :msg_id 4, :in_reply_to 4}</title></rect><use xlink:href="#ahead" x="121.6552506059644" y="0" /><text text-anchor="middle" x="60.8276253029822" y="-4" transform="rotate(180 60.8276253029822 0)" filter="url(#glow)" style="fill: #fff" >echo_ok {:echo "Please echo 67"}</text><text text-anchor="middle" x="60.8276253029822" y="-4" transform="rotate(180 60.8276253029822 0)" >echo_ok {:echo "Please echo 67"}</text></g></g></svg>