<?xml version="1.0" encoding="UTF-8"?><svg xmlns:svg="http://www.w3.org/2000/svg" xmlns="http://www.w3.org/2000/svg" xmlns:xlink="http://www.w3.org/1999/xlink" version="2.0" width="1200" height="1580" ><style >
svg {
  font-family: Helvetica, Arial, sans-serif;
  font-size: 11px;
}
rect {
  stroke-linecap: butt;
  stroke-width: 3;
  stroke: #fff;
/*  stroke-opacity: 1; */
}
rect:hover {
  stroke: #fff;
/*  stroke-opacity: 1; /*
}
polygon { fill: #000; }</style><defs ><polygon id="ahead" points="0 0, -12 4, -12 -4" /><filter id="glow" x="0" y="0" ><feGaussianBlur in="SourceAlpha" stdDeviation="2" result="blurred" /><feFlood flood-color="#fff" /><feComposite operator="in" in2="blurred" /><feComponentTransfer ><feFuncA type="linear" slope="10" intercept="0" /></feComponentTransfer><feMerge ><feMergeNode /><feMergeNode in="SourceGraphic" /></feMerge></filter></defs><g ><text x="31.578947" y="20.0" text-anchor="middle" alignment-baseline="middle" fill="#000" >c5</text><text x="31.578947" y="1020.0" text-anchor="middle" alignment-baseline="middle" fill="#aaa" >c5</text><text x="94.73684" y="20.0" text-anchor="middle" alignment-baseline="middle" fill="#000" >c6</text><text x="94.73684" y="1020.0" text-anchor="middle" alignment-baseline="middle" fill="#aaa" >c6</text><text x="157.89473" y="20.0" text-anchor="middle" alignment-baseline="middle" fill="#000" >c7</text><text x="157.89473" y="1020.0" text-anchor="middle" alignment-baseline="middle" fill="#aaa" >c7</text><text x="221.05263" y="20.0" text-anchor="middle" alignment-baseline="middle" fill="#000" >c8</text><text x="221.05263" y="1020.0" text-anchor="middle" alignment-baseline="middle" fill="#aaa" >c8</text><text x="284.21054" y="20.0" text-anchor="middle" alignment-baseline="middle" fill="#000" >c9</text><text x="284.21054" y="1020.0" text-anchor="middle" alignment-baseline="middle" fill="#aaa" >c9</text><text x="347.3684" y="20.0" text-anchor="middle" alignment-baseline="middle" fill="#000" >c10</text><text x="347.3684" y="1020.0" text-anchor="middle" alignment-baseline="middle" fill="#aaa" >c10</text><text x="410.5263" y="20.0" text-anchor="middle" alignment-baseline="middle" fill="#000" >c11</text><text x="410.5263" y="1020.0" text-anchor="middle" alignment-baseline="middle" fill="#aaa" >c11</text><text x="473.6842" y="20.0" text-anchor="middle" alignment-baseline="middle" fill="#000" >c12</text><text x="473.6842" y="1020.0" text-anchor="middle" alignment-baseline="middle" fill="#aaa" >c12</text><text x="536.8421" y="20.0" text-anchor="middle" alignment-baseline="middle" fill="#000" >c13</text><text x="536.8421" y="1020.0" text-anchor="middle" alignment-baseline="middle" fill="#aaa" >c13</text><text x="600.0" y="20.0" text-anchor="middle" alignment-baseline="middle" fill="#000" >c14</text><text x="600.0" y="1020.0" text-anchor="middle" alignment-baseline="middle" fill="#aaa" >c14</text><text x="663.1579" y="20.0" text-anchor="middle" alignment-baseline="middle" fill="#000" >c15</text><text x="663.1579" y="1020.0" text-anchor="middle" alignment-baseline="middle" fill="#aaa" >c15</text><text x="726.3158" y="20.0" text-anchor="middle" alignment-baseline="middle" fill="#000" >c16</text><text x="726.3158" y="1020.0" text-anchor="middle" alignment-baseline="middle" fill="#aaa" >c16</text><text x="789.4737" y="20.0" text-anchor="middle" alignment-baseline="middle" fill="#000" >c17</text><text x="789.4737" y="1020.0" text-anchor="middle" alignment-baseline="middle" fill="#aaa" >c17</text><text x="852.6316" y="20.0" text-anchor="middle" alignment-baseline="middle" fill="#000" >c18</text><text x="852.6316" y="1020.0" text-anchor="middle" alignment-baseline="middle" fill="#aaa" >c18</text><text x="915.7895" y="20.0" text-anchor="middle" alignment-baseline="middle" fill="#000" >n1</text><text x="915.7895" y="1020.0" text-anchor="middle" alignment-baseline="middle" fill="#aaa" >n1</text><text x="978.9474" y="20.0" text-anchor="middle" alignment-baseline="middle" fill="#000" >n2</text><text x="978.9474" y="1020.0" text-anchor="middle" alignment-baseline="middle" fill="#aaa" >n2</text><text x="1042.1052" y="20.0" text-anchor="middle" alignment-baseline="middle" fill="#000" >n3</text><text x="1042.1052" y="1020.0" text-anchor="middle" alignment-baseline="middle" fill="#aaa" >n3</text><text x="1105.2632" y="20.0" text-anchor="middle" alignment-baseline="middle" fill="#000" >n4</text><text x="1105.2632" y="1020.0" text-anchor="middle" alignment-baseline="middle" fill="#aaa" >n4</text><text x="1168.421" y="20.0" text-anchor="middle" alignment-baseline="middle" fill="#000" >n5</text><text x="1168.421" y="1020.0" text-anchor="middle" alignment-baseline="middle" fill="#aaa" >n5</text></g><g ><line stroke="#ccc" x1="31.578947" y1="30.0" x2="31.578947" y2="1490.0" /><line stroke="#ccc" x1="94.73684" y1="30.0" x2="94.73684" y2="1490.0" /><line stroke="#ccc" x1="157.89473" y1="30.0" x2="157.89473" y2="1490.0" /><line stroke="#ccc" x1="221.05263" y1="30.0" x2="221.05263" y2="1490.0" /><line stroke="#ccc" x1="284.21054" y1="30.0" x2="284.21054" y2="1490.0" /><line stroke="#ccc" x1="347.3684" y1="30.0" x2="347.3684" y2="1490.0" /><line stroke="#ccc" x1="410.5263" y1="30.0" x2="410.5263" y2="1490.0" /><line stroke="#ccc" x1="473.6842" y1="30.0" x2="473.6842" y2="1490.0" /><line stroke="#ccc" x1="536.8421" y1="30.0" x2="536.8421" y2="1490.0" /><line stroke="#ccc" x1="600.0" y1="30.0" x2="600.0" y2="1490.0" /><line stroke="#ccc" x1="663.1579" y1="30.0" x2="663.1579" y2="1490.0" /><line stroke="#ccc" x1="726.3158" y1="30.0" x2="726.3158" y2="1490.0" /><line stroke="#ccc" x1="789.4737" y1="30.0" x2="789.4737" y2="1490.0" /><line stroke="#ccc" x1="852.6316" y1="30.0" x2="852.6316" y2="1490.0" /><line stroke="#ccc" x1="915.7895" y1="30.0" x2="915.7895" y2="1490.0" /><line stroke="#ccc" x1="978.9474" y1="30.0" x2="978.9474" y2="1490.0" /><line stroke="#ccc" x1="1042.1052" y1="30.0" x2="1042.1052" y2="1490.0" /><line stroke="#ccc" x1="1105.2632" y1="30.0" x2="1105.2632" y2="1490.0" /><line stroke="#ccc" x1="1168.421" y1="30.0" x2="1168.421" y2="1490.0" /></g><g ><g transform="translate(157.89473 130.0) rotate(1.2957550625716494) " ><rect x="0" y="-2.5" height="5" width="880.436656555748" fill="#81BFFC" ><title >c7 → n3 {:type "topology", :topology {"n1" ["n4" "n2"], "n2" ["n5" "n3" "n1"], "n3" ["n2"], "n4" ["n1" "n5"], "n5" ["n2" "n4"]}, :msg_id 1}</title></rect><use xlink:href="#ahead" x="884.436656555748" y="0" /><text text-anchor="middle" x="442.218328277874" y="-4" transform="" filter="url(#glow)" style="fill: #fff" >topology {:topology {"n1" ["n4" "n2"], "n2" ["n…</text><text text-anchor="middle" x="442.218328277874" y="-4" transform="" >topology {:topology {"n1" ["n4" "n2"], "n2" ["n…</text></g><g transform="translate(284.21054 90.0) rotate(5.169828158424239) " ><rect x="0" y="-2.5" height="5" width="883.8221513769228" fill="#81BFFC" ><title >c9 → n5 {:type "topology", :topology {"n1" ["n4" "n2"], "n2" ["n5" "n3" "n1"], "n3" ["n2"], "n4" ["n1" "n5"], "n5" ["n2" "n4"]}, :msg_id 1}</title></rect><use xlink:href="#ahead" x="887.8221513769228" y="0" /><text text-anchor="middle" x="443.9110756884614" y="-4" transform="" filter="url(#glow)" style="fill: #fff" >topology {:topology {"n1" ["n4" "n2"], "n2" ["n…</text><text text-anchor="middle" x="443.9110756884614" y="-4" transform="" >topology {:topology {"n1" ["n4" "n2"], "n2" ["n…</text></g><g transform="translate(221.05263 70.0) rotate(7.728636739364715) " ><rect x="0" y="-2.5" height="5" width="888.3162597394297" fill="#81BFFC" ><title >c8 → n4 {:type "topology", :topology {"n1" ["n4" "n2"], "n2" ["n5" "n3" "n1"], "n3" ["n2"], "n4" ["n1" "n5"], "n5" ["n2" "n4"]}, :msg_id 1}</title></rect><use xlink:href="#ahead" x="892.3162597394297" y="0" /><text text-anchor="middle" x="446.15812986971486" y="-4" transform="" filter="url(#glow)" style="fill: #fff" >topology {:topology {"n1" ["n4" "n2"], "n2" ["n…</text><text text-anchor="middle" x="446.15812986971486" y="-4" transform="" >topology {:topology {"n1" ["n4" "n2"], "n2" ["n…</text></g><g transform="translate(31.578947 50.0) rotate(10.256819655914773) " ><rect x="0" y="-2.5" height="5" width="894.5701329247464" fill="#81BFFC" ><title >c5 → n1 {:type "topology", :topology {"n1" ["n4" "n2"], "n2" ["n5" "n3" "n1"], "n3" ["n2"], "n4" ["n1" "n5"], "n5" ["n2" "n4"]}, :msg_id 1}</title></rect><use xlink:href="#ahead" x="898.5701329247464" y="0" /><text text-anchor="middle" x="449.2850664623732" y="-4" transform="" filter="url(#glow)" style="fill: #fff" >topology {:topology {"n1" ["n4" "n2"], "n2" ["n…</text><text text-anchor="middle" x="449.2850664623732" y="-4" transform="" >topology {:topology {"n1" ["n4" "n2"], "n2" ["n…</text></g><g transform="translate(94.73684 110.0) rotate(7.728636805245131) " ><rect x="0" y="-2.5" height="5" width="888.3162521793397" fill="#81BFFC" ><title >c6 → n2 {:type "topology", :topology {"n1" ["n4" "n2"], "n2" ["n5" "n3" "n1"], "n3" ["n2"], "n4" ["n1" "n5"], "n5" ["n2" "n4"]}, :msg_id 1}</title></rect><use xlink:href="#ahead" x="892.3162521793397" y="0" /><text text-anchor="middle" x="446.15812608966985" y="-4" transform="" filter="url(#glow)" style="fill: #fff" >topology {:topology {"n1" ["n4" "n2"], "n2" ["n…</text><text text-anchor="middle" x="446.15812608966985" y="-4" transform="" >topology {:topology {"n1" ["n4" "n2"], "n2" ["n…</text></g><g transform="translate(1168.421 250.0) rotate(176.1180229083998) " ><rect x="0" y="-2.5" height="5" width="882.2438561003103" fill="#81BFFC" ><title >n5 → c9 {:type "topology_ok", :in_reply_to 1, :msg_id 1}</title></rect><use xlink:href="#ahead" x="886.2438561003103" y="0" /><text text-anchor="middle" x="443.12192805015513" y="-4" transform="rotate(180 443.12192805015513 0)" filter="url(#glow)" style="fill: #fff" >topology_ok {}</text><text text-anchor="middle" x="443.12192805015513" y="-4" transform="rotate(180 443.12192805015513 0)" >topology_ok {}</text></g><g transform="translate(978.9474 290.0) rotate(177.40981409682456) " ><rect x="0" y="-2.5" height="5" width="881.1148478606508" fill="#81BFFC" ><title >n2 → c6 {:type "topology_ok", :in_reply_to 1, :msg_id 1}</title></rect><use xlink:href="#ahead" x="885.1148478606508" y="0" /><text text-anchor="middle" x="442.5574239303254" y="-4" transform="rotate(180 442.5574239303254 0)" filter="url(#glow)" style="fill: #fff" >topology_ok {}</text><text text-anchor="middle" x="442.5574239303254" y="-4" transform="rotate(180 442.5574239303254 0)" >topology_ok {}</text></g><g transform="translate(1042.1052 270.0) rotate(174.83017193030787) " ><rect x="0" y="-2.5" height="5" width="883.8221665736388" fill="#81BFFC" ><title >n3 → c7 {:type "topology_ok", :in_reply_to 1, :msg_id 1}</title></rect><use xlink:href="#ahead" x="887.8221665736388" y="0" /><text text-anchor="middle" x="443.9110832868194" y="-4" transform="rotate(180 443.9110832868194 0)" filter="url(#glow)" style="fill: #fff" >topology_ok {}</text><text text-anchor="middle" x="443.9110832868194" y="-4" transform="rotate(180 443.9110832868194 0)" >topology_ok {}</text></g><g transform="translate(915.7895 370.0) rotate(178.70424500728203) " ><rect x="0" y="-2.5" height="5" width="880.4367042272705" fill="#81BFFC" ><title >n1 → c5 {:type "topology_ok", :in_reply_to 1, :msg_id 1}</title></rect><use xlink:href="#ahead" x="884.4367042272705" y="0" /><text text-anchor="middle" x="442.21835211363526" y="-4" transform="rotate(180 442.21835211363526 0)" filter="url(#glow)" style="fill: #fff" >topology_ok {}</text><text text-anchor="middle" x="442.21835211363526" y="-4" transform="rotate(180 442.21835211363526 0)" >topology_ok {}</text></g><g transform="translate(1105.2632 410.0) rotate(178.70424502684105) " ><rect x="0" y="-2.5" height="5" width="880.4367175752968" fill="#81BFFC" ><title >n4 → c8 {:type "topology_ok", :in_reply_to 1, :msg_id 1}</title></rect><use xlink:href="#ahead" x="884.4367175752968" y="0" /><text text-anchor="middle" x="442.2183587876484" y="-4" transform="rotate(180 442.2183587876484 0)" filter="url(#glow)" style="fill: #fff" >topology_ok {}</text><text text-anchor="middle" x="442.2183587876484" y="-4" transform="rotate(180 442.2183587876484 0)" >topology_ok {}</text></g><g transform="translate(347.3684 450.0) rotate(2.0151312087610784) " ><rect x="0" y="-2.5" height="5" width="564.7728245463898" fill="#81BFFC" ><title >c10 → n1 {:type "broadcast", :message 0, :msg_id 1}</title></rect><use xlink:href="#ahead" x="568.7728245463898" y="0" /><text text-anchor="middle" x="284.3864122731949" y="-4" transform="" filter="url(#glow)" style="fill: #fff" >broadcast {:message 0}</text><text text-anchor="middle" x="284.3864122731949" y="-4" transform="" >broadcast {:message 0}</text></g><g transform="translate(915.7895 490.0) rotate(177.98486879123894) " ><rect x="0" y="-2.5" height="5" width="564.7728245463898" fill="#81BFFC" ><title >n1 → c10 {:type "broadcast_ok", :in_reply_to 1, :msg_id 2}</title></rect><use xlink:href="#ahead" x="568.7728245463898" y="0" /><text text-anchor="middle" x="284.3864122731949" y="-4" transform="rotate(180 284.3864122731949 0)" filter="url(#glow)" style="fill: #fff" >broadcast_ok {}</text><text text-anchor="middle" x="284.3864122731949" y="-4" transform="rotate(180 284.3864122731949 0)" >broadcast_ok {}</text></g><g transform="translate(410.5263 530.0) rotate(2.0151312087610784) " ><rect x="0" y="-2.5" height="5" width="564.7728245463898" fill="#81BFFC" ><title >c11 → n2 {:type "read", :msg_id 1}</title></rect><use xlink:href="#ahead" x="568.7728245463898" y="0" /><text text-anchor="middle" x="284.3864122731949" y="-4" transform="" filter="url(#glow)" style="fill: #fff" >read {}</text><text text-anchor="middle" x="284.3864122731949" y="-4" transform="" >read {}</text></g><g transform="translate(978.9474 570.0) rotate(177.98486879123894) " ><rect x="0" y="-2.5" height="5" width="564.7728245463898" fill="#81BFFC" ><title >n2 → c11 {:type "read_ok", :messages [], :in_reply_to 1, :msg_id 2}</title></rect><use xlink:href="#ahead" x="568.7728245463898" y="0" /><text text-anchor="middle" x="284.3864122731949" y="-4" transform="rotate(180 284.3864122731949 0)" filter="url(#glow)" style="fill: #fff" >read_ok {:messages []}</text><text text-anchor="middle" x="284.3864122731949" y="-4" transform="rotate(180 284.3864122731949 0)" >read_ok {:messages []}</text></g><g transform="translate(473.6842 610.0) rotate(2.0151314249607646) " ><rect x="0" y="-2.5" height="5" width="564.7727635489792" fill="#81BFFC" ><title >c12 → n3 {:type "read", :msg_id 1}</title></rect><use xlink:href="#ahead" x="568.7727635489792" y="0" /><text text-anchor="middle" x="284.3863817744896" y="-4" transform="" filter="url(#glow)" style="fill: #fff" >read {}</text><text text-anchor="middle" x="284.3863817744896" y="-4" transform="" >read {}</text></g><g transform="translate(1042.1052 650.0) rotate(177.98486857503923) " ><rect x="0" y="-2.5" height="5" width="564.7727635489792" fill="#81BFFC" ><title >n3 → c12 {:type "read_ok", :messages [], :in_reply_to 1, :msg_id 2}</title></rect><use xlink:href="#ahead" x="568.7727635489792" y="0" /><text text-anchor="middle" x="284.3863817744896" y="-4" transform="rotate(180 284.3863817744896 0)" filter="url(#glow)" style="fill: #fff" >read_ok {:messages []}</text><text text-anchor="middle" x="284.3863817744896" y="-4" transform="rotate(180 284.3863817744896 0)" >read_ok {:messages []}</text></g><g transform="translate(536.8421 690.0) rotate(4.025289375763598) " ><rect x="0" y="-2.5" height="5" width="565.8267508133313" fill="#81BFFC" ><title >c13 → n4 {:type "broadcast", :message 1, :msg_id 1}</title></rect><use xlink:href="#ahead" x="569.8267508133313" y="0" /><text text-anchor="middle" x="284.91337540666564" y="-4" transform="" filter="url(#glow)" style="fill: #fff" >broadcast {:message 1}</text><text text-anchor="middle" x="284.91337540666564" y="-4" transform="" >broadcast {:message 1}</text></g><g transform="translate(1105.2632 750.0) rotate(177.98486879123894) " ><rect x="0" y="-2.5" height="5" width="564.7728245463898" fill="#81BFFC" ><title >n4 → c13 {:type "broadcast_ok", :in_reply_to 1, :msg_id 2}</title></rect><use xlink:href="#ahead" x="568.7728245463898" y="0" /><text text-anchor="middle" x="284.3864122731949" y="-4" transform="rotate(180 284.3864122731949 0)" filter="url(#glow)" style="fill: #fff" >broadcast_ok {}</text><text text-anchor="middle" x="284.3864122731949" y="-4" transform="rotate(180 284.3864122731949 0)" >broadcast_ok {}</text></g><g transform="translate(600.0 710.0) rotate(8.011232059725199) " ><rect x="0" y="-2.5" height="5" width="570.0230453171223" fill="#81BFFC" ><title >c14 → n5 {:type "broadcast", :message 2, :msg_id 1}</title></rect><use xlink:href="#ahead" x="574.0230453171223" y="0" /><text text-anchor="middle" x="287.01152265856115" y="-4" transform="" filter="url(#glow)" style="fill: #fff" >broadcast {:message 2}</text><text text-anchor="middle" x="287.01152265856115" y="-4" transform="" >broadcast {:message 2}</text></g><g transform="translate(1168.421 810.0) rotate(177.98486857503923) " ><rect x="0" y="-2.5" height="5" width="564.7727635489792" fill="#81BFFC" ><title >n5 → c14 {:type "broadcast_ok", :in_reply_to 1, :msg_id 2}</title></rect><use xlink:href="#ahead" x="568.7727635489792" y="0" /><text text-anchor="middle" x="284.3863817744896" y="-4" transform="rotate(180 284.3863817744896 0)" filter="url(#glow)" style="fill: #fff" >broadcast_ok {}</text><text text-anchor="middle" x="284.3863817744896" y="-4" transform="rotate(180 284.3863817744896 0)" >broadcast_ok {}</text></g><g transform="translate(347.3684 850.0) rotate(2.0151312087610784) " ><rect x="0" y="-2.5" height="5" width="564.7728245463898" fill="#81BFFC" ><title >c10 → n1 {:type "broadcast", :message 3, :msg_id 2}</title></rect><use xlink:href="#ahead" x="568.7728245463898" y="0" /><text text-anchor="middle" x="284.3864122731949" y="-4" transform="" filter="url(#glow)" style="fill: #fff" >broadcast {:message 3}</text><text text-anchor="middle" x="284.3864122731949" y="-4" transform="" >broadcast {:message 3}</text></g><g transform="translate(410.5263 890.0) rotate(2.0151312087610784) " ><rect x="0" y="-2.5" height="5" width="564.7728245463898" fill="#81BFFC" ><title >c11 → n2 {:type "read", :msg_id 2}</title></rect><use xlink:href="#ahead" x="568.7728245463898" y="0" /><text text-anchor="middle" x="284.3864122731949" y="-4" transform="" filter="url(#glow)" style="fill: #fff" >read {}</text><text text-anchor="middle" x="284.3864122731949" y="-4" transform="" >read {}</text></g><g transform="translate(978.9474 930.0) rotate(177.98486879123894) " ><rect x="0" y="-2.5" height="5" width="564.7728245463898" fill="#81BFFC" ><title >n2 → c11 {:type "read_ok", :messages [], :in_reply_to 2, :msg_id 3}</title></rect><use xlink:href="#ahead" x="568.7728245463898" y="0" /><text text-anchor="middle" x="284.3864122731949" y="-4" transform="rotate(180 284.3864122731949 0)" filter="url(#glow)" style="fill: #fff" >read_ok {:messages []}</text><text text-anchor="middle" x="284.3864122731949" y="-4" transform="rotate(180 284.3864122731949 0)" >read_ok {:messages []}</text></g><g transform="translate(410.5263 970.0) rotate(2.0151312087610784) " ><rect x="0" y="-2.5" height="5" width="564.7728245463898" fill="#81BFFC" ><title >c11 → n2 {:type "broadcast", :message 4, :msg_id 3}</title></rect><use xlink:href="#ahead" x="568.7728245463898" y="0" /><text text-anchor="middle" x="284.3864122731949" y="-4" transform="" filter="url(#glow)" style="fill: #fff" >broadcast {:message 4}</text><text text-anchor="middle" x="284.3864122731949" y="-4" transform="" >broadcast {:message 4}</text></g><g transform="translate(978.9474 1010.0) rotate(177.98486879123894) " ><rect x="0" y="-2.5" height="5" width="564.7728245463898" fill="#81BFFC" ><title >n2 → c11 {:type "broadcast_ok", :in_reply_to 3, :msg_id 4}</title></rect><use xlink:href="#ahead" x="568.7728245463898" y="0" /><text text-anchor="middle" x="284.3864122731949" y="-4" transform="rotate(180 284.3864122731949 0)" filter="url(#glow)" style="fill: #fff" >broadcast_ok {}</text><text text-anchor="middle" x="284.3864122731949" y="-4" transform="rotate(180 284.3864122731949 0)" >broadcast_ok {}</text></g><g transform="translate(473.6842 1050.0) rotate(2.0151314249607646) " ><rect x="0" y="-2.5" height="5" width="564.7727635489792" fill="#81BFFC" ><title >c12 → n3 {:type "broadcast", :message 5, :msg_id 2}</title></rect><use xlink:href="#ahead" x="568.7727635489792" y="0" /><text text-anchor="middle" x="284.3863817744896" y="-4" transform="" filter="url(#glow)" style="fill: #fff" >broadcast {:message 5}</text><text text-anchor="middle" x="284.3863817744896" y="-4" transform="" >broadcast {:message 5}</text></g><g transform="translate(1042.1052 1090.0) rotate(177.98486857503923) " ><rect x="0" y="-2.5" height="5" width="564.7727635489792" fill="#81BFFC" ><title >n3 → c12 {:type "broadcast_ok", :in_reply_to 2, :msg_id 3}</title></rect><use xlink:href="#ahead" x="568.7727635489792" y="0" /><text text-anchor="middle" x="284.3863817744896" y="-4" transform="rotate(180 284.3863817744896 0)" filter="url(#glow)" style="fill: #fff" >broadcast_ok {}</text><text text-anchor="middle" x="284.3863817744896" y="-4" transform="rotate(180 284.3863817744896 0)" >broadcast_ok {}</text></g><g transform="translate(536.8421 1130.0) rotate(2.0151312087610784) " ><rect x="0" y="-2.5" height="5" width="564.7728245463898" fill="#81BFFC" ><title >c13 → n4 {:type "broadcast", :message 6, :msg_id 2}</title></rect><use xlink:href="#ahead" x="568.7728245463898" y="0" /><text text-anchor="middle" x="284.3864122731949" y="-4" transform="" filter="url(#glow)" style="fill: #fff" >broadcast {:message 6}</text><text text-anchor="middle" x="284.3864122731949" y="-4" transform="" >broadcast {:message 6}</text></g><g transform="translate(600.0 1170.0) rotate(2.0151314249607646) " ><rect x="0" y="-2.5" height="5" width="564.7727635489792" fill="#81BFFC" ><title >c14 → n5 {:type "broadcast", :message 7, :msg_id 2}</title></rect><use xlink:href="#ahead" x="568.7727635489792" y="0" /><text text-anchor="middle" x="284.3863817744896" y="-4" transform="" filter="url(#glow)" style="fill: #fff" >broadcast {:message 7}</text><text text-anchor="middle" x="284.3863817744896" y="-4" transform="" >broadcast {:message 7}</text></g><g transform="translate(410.5263 1210.0) rotate(2.0151312087610784) " ><rect x="0" y="-2.5" height="5" width="564.7728245463898" fill="#81BFFC" ><title >c11 → n2 {:type "broadcast", :message 8, :msg_id 4}</title></rect><use xlink:href="#ahead" x="568.7728245463898" y="0" /><text text-anchor="middle" x="284.3864122731949" y="-4" transform="" filter="url(#glow)" style="fill: #fff" >broadcast {:message 8}</text><text text-anchor="middle" x="284.3864122731949" y="-4" transform="" >broadcast {:message 8}</text></g><g transform="translate(473.6842 1250.0) rotate(2.0151314249607646) " ><rect x="0" y="-2.5" height="5" width="564.7727635489792" fill="#81BFFC" ><title >c12 → n3 {:type "read", :msg_id 3}</title></rect><use xlink:href="#ahead" x="568.7727635489792" y="0" /><text text-anchor="middle" x="284.3863817744896" y="-4" transform="" filter="url(#glow)" style="fill: #fff" >read {}</text><text text-anchor="middle" x="284.3863817744896" y="-4" transform="" >read {}</text></g><g transform="translate(663.1579 1310.0) rotate(10.256819331081893) " ><rect x="0" y="-2.5" height="5" width="445.2850805388852" fill="#81BFFC" ><title >c15 → n4 {:type "read", :msg_id 1}</title></rect><use xlink:href="#ahead" x="449.2850805388852" y="0" /><text text-anchor="middle" x="224.6425402694426" y="-4" transform="" filter="url(#glow)" style="fill: #fff" >read {}</text><text text-anchor="middle" x="224.6425402694426" y="-4" transform="" >read {}</text></g><g transform="translate(726.3158 1330.0) rotate(22.89055061196798) " ><rect x="0" y="-2.5" height="5" width="201.67032031937757" fill="#81BFFC" ><title >c16 → n1 {:type "read", :msg_id 1}</title></rect><use xlink:href="#ahead" x="205.67032031937757" y="0" /><text text-anchor="middle" x="102.83516015968878" y="-4" transform="" filter="url(#glow)" style="fill: #fff" >read {}</text><text text-anchor="middle" x="102.83516015968878" y="-4" transform="" >read {}</text></g><g transform="translate(789.4737 1370.0) rotate(8.99714439635257) " ><rect x="0" y="-2.5" height="5" width="379.66792462086164" fill="#81BFFC" ><title >c17 → n5 {:type "read", :msg_id 1}</title></rect><use xlink:href="#ahead" x="383.66792462086164" y="0" /><text text-anchor="middle" x="191.83396231043082" y="-4" transform="" filter="url(#glow)" style="fill: #fff" >read {}</text><text text-anchor="middle" x="191.83396231043082" y="-4" transform="" >read {}</text></g><g transform="translate(473.6842 1290.0) rotate(15.720928630350755) " ><rect x="0" y="-2.5" height="5" width="586.5103356886677" fill="#81BFFC" ><title >c12 → n3 {:type "read", :msg_id 4}</title></rect><use xlink:href="#ahead" x="590.5103356886677" y="0" /><text text-anchor="middle" x="295.25516784433387" y="-4" transform="" filter="url(#glow)" style="fill: #fff" >read {}</text><text text-anchor="middle" x="295.25516784433387" y="-4" transform="" >read {}</text></g><g transform="translate(852.6316 1350.0) rotate(43.531197830421924) " ><rect x="0" y="-2.5" height="5" width="170.22881591015798" fill="#81BFFC" ><title >c18 → n2 {:type "read", :msg_id 1}</title></rect><use xlink:href="#ahead" x="174.22881591015798" y="0" /><text text-anchor="middle" x="87.11440795507899" y="-4" transform="" filter="url(#glow)" style="fill: #fff" >read {}</text><text text-anchor="middle" x="87.11440795507899" y="-4" transform="" >read {}</text></g></g></svg>