<?xml version="1.0" encoding="UTF-8"?><svg xmlns:svg="http://www.w3.org/2000/svg" xmlns="http://www.w3.org/2000/svg" xmlns:xlink="http://www.w3.org/1999/xlink" version="2.0" width="1200" height="1900" ><style >
svg {
  font-family: Helvetica, Arial, sans-serif;
  font-size: 11px;
}
rect {
  stroke-linecap: butt;
  stroke-width: 3;
  stroke: #fff;
/*  stroke-opacity: 1; */
}
rect:hover {
  stroke: #fff;
/*  stroke-opacity: 1; /*
}
polygon { fill: #000; }</style><defs ><polygon id="ahead" points="0 0, -12 4, -12 -4" /><filter id="glow" x="0" y="0" ><feGaussianBlur in="SourceAlpha" stdDeviation="2" result="blurred" /><feFlood flood-color="#fff" /><feComposite operator="in" in2="blurred" /><feComponentTransfer ><feFuncA type="linear" slope="10" intercept="0" /></feComponentTransfer><feMerge ><feMergeNode /><feMergeNode in="SourceGraphic" /></feMerge></filter></defs><g ><text x="37.5" y="20.0" text-anchor="middle" alignment-baseline="middle" fill="#000" >c5</text><text x="37.5" y="1020.0" text-anchor="middle" alignment-baseline="middle" fill="#aaa" >c5</text><text x="112.5" y="20.0" text-anchor="middle" alignment-baseline="middle" fill="#000" >c6</text><text x="112.5" y="1020.0" text-anchor="middle" alignment-baseline="middle" fill="#aaa" >c6</text><text x="187.5" y="20.0" text-anchor="middle" alignment-baseline="middle" fill="#000" >c7</text><text x="187.5" y="1020.0" text-anchor="middle" alignment-baseline="middle" fill="#aaa" >c7</text><text x="262.5" y="20.0" text-anchor="middle" alignment-baseline="middle" fill="#000" >c8</text><text x="262.5" y="1020.0" text-anchor="middle" alignment-baseline="middle" fill="#aaa" >c8</text><text x="337.5" y="20.0" text-anchor="middle" alignment-baseline="middle" fill="#000" >c9</text><text x="337.5" y="1020.0" text-anchor="middle" alignment-baseline="middle" fill="#aaa" >c9</text><text x="412.5" y="20.0" text-anchor="middle" alignment-baseline="middle" fill="#000" >c10</text><text x="412.5" y="1020.0" text-anchor="middle" alignment-baseline="middle" fill="#aaa" >c10</text><text x="487.5" y="20.0" text-anchor="middle" alignment-baseline="middle" fill="#000" >c11</text><text x="487.5" y="1020.0" text-anchor="middle" alignment-baseline="middle" fill="#aaa" >c11</text><text x="562.5" y="20.0" text-anchor="middle" alignment-baseline="middle" fill="#000" >c12</text><text x="562.5" y="1020.0" text-anchor="middle" alignment-baseline="middle" fill="#aaa" >c12</text><text x="637.5" y="20.0" text-anchor="middle" alignment-baseline="middle" fill="#000" >c13</text><text x="637.5" y="1020.0" text-anchor="middle" alignment-baseline="middle" fill="#aaa" >c13</text><text x="712.5" y="20.0" text-anchor="middle" alignment-baseline="middle" fill="#000" >c14</text><text x="712.5" y="1020.0" text-anchor="middle" alignment-baseline="middle" fill="#aaa" >c14</text><text x="787.5" y="20.0" text-anchor="middle" alignment-baseline="middle" fill="#000" >c15</text><text x="787.5" y="1020.0" text-anchor="middle" alignment-baseline="middle" fill="#aaa" >c15</text><text x="862.5" y="20.0" text-anchor="middle" alignment-baseline="middle" fill="#000" >n1</text><text x="862.5" y="1020.0" text-anchor="middle" alignment-baseline="middle" fill="#aaa" >n1</text><text x="937.5" y="20.0" text-anchor="middle" alignment-baseline="middle" fill="#000" >n2</text><text x="937.5" y="1020.0" text-anchor="middle" alignment-baseline="middle" fill="#aaa" >n2</text><text x="1012.5" y="20.0" text-anchor="middle" alignment-baseline="middle" fill="#000" >n3</text><text x="1012.5" y="1020.0" text-anchor="middle" alignment-baseline="middle" fill="#aaa" >n3</text><text x="1087.5" y="20.0" text-anchor="middle" alignment-baseline="middle" fill="#000" >n4</text><text x="1087.5" y="1020.0" text-anchor="middle" alignment-baseline="middle" fill="#aaa" >n4</text><text x="1162.5" y="20.0" text-anchor="middle" alignment-baseline="middle" fill="#000" >n5</text><text x="1162.5" y="1020.0" text-anchor="middle" alignment-baseline="middle" fill="#aaa" >n5</text></g><g ><line stroke="#ccc" x1="37.5" y1="30.0" x2="37.5" y2="1810.0" /><line stroke="#ccc" x1="112.5" y1="30.0" x2="112.5" y2="1810.0" /><line stroke="#ccc" x1="187.5" y1="30.0" x2="187.5" y2="1810.0" /><line stroke="#ccc" x1="262.5" y1="30.0" x2="262.5" y2="1810.0" /><line stroke="#ccc" x1="337.5" y1="30.0" x2="337.5" y2="1810.0" /><line stroke="#ccc" x1="412.5" y1="30.0" x2="412.5" y2="1810.0" /><line stroke="#ccc" x1="487.5" y1="30.0" x2="487.5" y2="1810.0" /><line stroke="#ccc" x1="562.5" y1="30.0" x2="562.5" y2="1810.0" /><line stroke="#ccc" x1="637.5" y1="30.0" x2="637.5" y2="1810.0" /><line stroke="#ccc" x1="712.5" y1="30.0" x2="712.5" y2="1810.0" /><line stroke="#ccc" x1="787.5" y1="30.0" x2="787.5" y2="1810.0" /><line stroke="#ccc" x1="862.5" y1="30.0" x2="862.5" y2="1810.0" /><line stroke="#ccc" x1="937.5" y1="30.0" x2="937.5" y2="1810.0" /><line stroke="#ccc" x1="1012.5" y1="30.0" x2="1012.5" y2="1810.0" /><line stroke="#ccc" x1="1087.5" y1="30.0" x2="1087.5" y2="1810.0" /><line stroke="#ccc" x1="1162.5" y1="30.0" x2="1162.5" y2="1810.0" /></g><g ><g transform="translate(262.5 70.0) rotate(7.594643368591445) " ><rect x="0" y="-2.5" height="5" width="601.3098380168623" fill="#81BFFC" ><title >c8 → n1 {:type "topology", :topology {"n1" ["n4" "n2"], "n2" ["n5" "n3" "n1"], "n3" ["n2"], "n4" ["n1" "n5"], "n5" ["n2" "n4"]}, :msg_id 1}</title></rect><use xlink:href="#ahead" x="605.3098380168623" y="0" /><text text-anchor="middle" x="302.65491900843114" y="-4" transform="" filter="url(#glow)" style="fill: #fff" >topology {:topology {"n1" ["n4" "n2"], "n2" ["n…</text><text text-anchor="middle" x="302.65491900843114" y="-4" transform="" >topology {:topology {"n1" ["n4" "n2"], "n2" ["n…</text></g><g transform="translate(187.5 130.0) rotate(2.3492786474801295) " ><rect x="0" y="-2.5" height="5" width="971.8201678588119" fill="#81BFFC" ><title >c7 → n5 {:type "topology", :topology {"n1" ["n4" "n2"], "n2" ["n5" "n3" "n1"], "n3" ["n2"], "n4" ["n1" "n5"], "n5" ["n2" "n4"]}, :msg_id 1}</title></rect><use xlink:href="#ahead" x="975.8201678588119" y="0" /><text text-anchor="middle" x="487.91008392940597" y="-4" transform="" filter="url(#glow)" style="fill: #fff" >topology {:topology {"n1" ["n4" "n2"], "n2" ["n…</text><text text-anchor="middle" x="487.91008392940597" y="-4" transform="" >topology {:topology {"n1" ["n4" "n2"], "n2" ["n…</text></g><g transform="translate(37.5 110.0) rotate(4.356975005846298) " ><rect x="0" y="-2.5" height="5" width="1049.0432089900205" fill="#81BFFC" ><title >c5 → n4 {:type "topology", :topology {"n1" ["n4" "n2"], "n2" ["n5" "n3" "n1"], "n3" ["n2"], "n4" ["n1" "n5"], "n5" ["n2" "n4"]}, :msg_id 1}</title></rect><use xlink:href="#ahead" x="1053.0432089900205" y="0" /><text text-anchor="middle" x="526.5216044950103" y="-4" transform="" filter="url(#glow)" style="fill: #fff" >topology {:topology {"n1" ["n4" "n2"], "n2" ["n…</text><text text-anchor="middle" x="526.5216044950103" y="-4" transform="" >topology {:topology {"n1" ["n4" "n2"], "n2" ["n…</text></g><g transform="translate(112.5 90.0) rotate(7.594643368591445) " ><rect x="0" y="-2.5" height="5" width="903.9647570252934" fill="#81BFFC" ><title >c6 → n3 {:type "topology", :topology {"n1" ["n4" "n2"], "n2" ["n5" "n3" "n1"], "n3" ["n2"], "n4" ["n1" "n5"], "n5" ["n2" "n4"]}, :msg_id 1}</title></rect><use xlink:href="#ahead" x="907.9647570252934" y="0" /><text text-anchor="middle" x="453.9823785126467" y="-4" transform="" filter="url(#glow)" style="fill: #fff" >topology {:topology {"n1" ["n4" "n2"], "n2" ["n…</text><text text-anchor="middle" x="453.9823785126467" y="-4" transform="" >topology {:topology {"n1" ["n4" "n2"], "n2" ["n…</text></g><g transform="translate(337.5 50.0) rotate(16.69924423399362) " ><rect x="0" y="-2.5" height="5" width="622.418390534633" fill="#81BFFC" ><title >c9 → n2 {:type "topology", :topology {"n1" ["n4" "n2"], "n2" ["n5" "n3" "n1"], "n3" ["n2"], "n4" ["n1" "n5"], "n5" ["n2" "n4"]}, :msg_id 1}</title></rect><use xlink:href="#ahead" x="626.418390534633" y="0" /><text text-anchor="middle" x="313.2091952673165" y="-4" transform="" filter="url(#glow)" style="fill: #fff" >topology {:topology {"n1" ["n4" "n2"], "n2" ["n…</text><text text-anchor="middle" x="313.2091952673165" y="-4" transform="" >topology {:topology {"n1" ["n4" "n2"], "n2" ["n…</text></g><g transform="translate(1087.5 270.0) rotate(177.81835859644852) " ><rect x="0" y="-2.5" height="5" width="1046.7616285342742" fill="#81BFFC" ><title >n4 → c5 {:type "topology_ok", :in_reply_to 1, :msg_id 1}</title></rect><use xlink:href="#ahead" x="1050.7616285342742" y="0" /><text text-anchor="middle" x="525.3808142671371" y="-4" transform="rotate(180 525.3808142671371 0)" filter="url(#glow)" style="fill: #fff" >topology_ok {}</text><text text-anchor="middle" x="525.3808142671371" y="-4" transform="rotate(180 525.3808142671371 0)" >topology_ok {}</text></g><g transform="translate(1012.5 290.0) rotate(177.4551956201869) " ><rect x="0" y="-2.5" height="5" width="896.8884503644166" fill="#81BFFC" ><title >n3 → c6 {:type "topology_ok", :in_reply_to 1, :msg_id 1}</title></rect><use xlink:href="#ahead" x="900.8884503644166" y="0" /><text text-anchor="middle" x="450.4442251822083" y="-4" transform="rotate(180 450.4442251822083 0)" filter="url(#glow)" style="fill: #fff" >topology_ok {}</text><text text-anchor="middle" x="450.4442251822083" y="-4" transform="rotate(180 450.4442251822083 0)" >topology_ok {}</text></g><g transform="translate(1162.5 250.0) rotate(174.14398641457103) " ><rect x="0" y="-2.5" height="5" width="976.114789195633" fill="#81BFFC" ><title >n5 → c7 {:type "topology_ok", :in_reply_to 1, :msg_id 1}</title></rect><use xlink:href="#ahead" x="980.114789195633" y="0" /><text text-anchor="middle" x="490.0573945978165" y="-4" transform="rotate(180 490.0573945978165 0)" filter="url(#glow)" style="fill: #fff" >topology_ok {}</text><text text-anchor="middle" x="490.0573945978165" y="-4" transform="rotate(180 490.0573945978165 0)" >topology_ok {}</text></g><g transform="translate(862.5 370.0) rotate(178.0908475670036) " ><rect x="0" y="-2.5" height="5" width="596.3332407921454" fill="#81BFFC" ><title >n1 → c8 {:type "topology_ok", :in_reply_to 1, :msg_id 1}</title></rect><use xlink:href="#ahead" x="600.3332407921454" y="0" /><text text-anchor="middle" x="300.1666203960727" y="-4" transform="rotate(180 300.1666203960727 0)" filter="url(#glow)" style="fill: #fff" >topology_ok {}</text><text text-anchor="middle" x="300.1666203960727" y="-4" transform="rotate(180 300.1666203960727 0)" >topology_ok {}</text></g><g transform="translate(937.5 410.0) rotate(178.0908475670036) " ><rect x="0" y="-2.5" height="5" width="596.3332407921454" fill="#81BFFC" ><title >n2 → c9 {:type "topology_ok", :in_reply_to 1, :msg_id 1}</title></rect><use xlink:href="#ahead" x="600.3332407921454" y="0" /><text text-anchor="middle" x="300.1666203960727" y="-4" transform="rotate(180 300.1666203960727 0)" filter="url(#glow)" style="fill: #fff" >topology_ok {}</text><text text-anchor="middle" x="300.1666203960727" y="-4" transform="rotate(180 300.1666203960727 0)" >topology_ok {}</text></g><g transform="translate(412.5 450.0) rotate(2.5448043798130957) " ><rect x="0" y="-2.5" height="5" width="446.4442251822083" fill="#81BFFC" ><title >c10 → n1 {:type "read", :msg_id 1}</title></rect><use xlink:href="#ahead" x="450.4442251822083" y="0" /><text text-anchor="middle" x="225.22211259110415" y="-4" transform="" filter="url(#glow)" style="fill: #fff" >read {}</text><text text-anchor="middle" x="225.22211259110415" y="-4" transform="" >read {}</text></g><g transform="translate(862.5 490.0) rotate(177.4551956201869) " ><rect x="0" y="-2.5" height="5" width="446.4442251822083" fill="#81BFFC" ><title >n1 → c10 {:type "read_ok", :messages [], :in_reply_to 1, :msg_id 2}</title></rect><use xlink:href="#ahead" x="450.4442251822083" y="0" /><text text-anchor="middle" x="225.22211259110415" y="-4" transform="rotate(180 225.22211259110415 0)" filter="url(#glow)" style="fill: #fff" >read_ok {:messages []}</text><text text-anchor="middle" x="225.22211259110415" y="-4" transform="rotate(180 225.22211259110415 0)" >read_ok {:messages []}</text></g><g transform="translate(487.5 530.0) rotate(2.5448043798130957) " ><rect x="0" y="-2.5" height="5" width="446.4442251822083" fill="#81BFFC" ><title >c11 → n2 {:type "broadcast", :message 0, :msg_id 1}</title></rect><use xlink:href="#ahead" x="450.4442251822083" y="0" /><text text-anchor="middle" x="225.22211259110415" y="-4" transform="" filter="url(#glow)" style="fill: #fff" >broadcast {:message 0}</text><text text-anchor="middle" x="225.22211259110415" y="-4" transform="" >broadcast {:message 0}</text></g><g transform="translate(937.5 570.0) rotate(177.4551956201869) " ><rect x="0" y="-2.5" height="5" width="446.4442251822083" fill="#81BFFC" ><title >n2 → c11 {:type "broadcast_ok", :in_reply_to 1, :msg_id 2}</title></rect><use xlink:href="#ahead" x="450.4442251822083" y="0" /><text text-anchor="middle" x="225.22211259110415" y="-4" transform="rotate(180 225.22211259110415 0)" filter="url(#glow)" style="fill: #fff" >broadcast_ok {}</text><text text-anchor="middle" x="225.22211259110415" y="-4" transform="rotate(180 225.22211259110415 0)" >broadcast_ok {}</text></g><g transform="translate(562.5 610.0) rotate(2.5448043798130957) " ><rect x="0" y="-2.5" height="5" width="446.4442251822083" fill="#81BFFC" ><title >c12 → n3 {:type "read", :msg_id 1}</title></rect><use xlink:href="#ahead" x="450.4442251822083" y="0" /><text text-anchor="middle" x="225.22211259110415" y="-4" transform="" filter="url(#glow)" style="fill: #fff" >read {}</text><text text-anchor="middle" x="225.22211259110415" y="-4" transform="" >read {}</text></g><g transform="translate(1012.5 650.0) rotate(177.4551956201869) " ><rect x="0" y="-2.5" height="5" width="446.4442251822083" fill="#81BFFC" ><title >n3 → c12 {:type "read_ok", :messages [], :in_reply_to 1, :msg_id 2}</title></rect><use xlink:href="#ahead" x="450.4442251822083" y="0" /><text text-anchor="middle" x="225.22211259110415" y="-4" transform="rotate(180 225.22211259110415 0)" filter="url(#glow)" style="fill: #fff" >read_ok {:messages []}</text><text text-anchor="middle" x="225.22211259110415" y="-4" transform="rotate(180 225.22211259110415 0)" >read_ok {:messages []}</text></g><g transform="translate(637.5 690.0) rotate(2.5448043798130957) " ><rect x="0" y="-2.5" height="5" width="446.4442251822083" fill="#81BFFC" ><title >c13 → n4 {:type "broadcast", :message 1, :msg_id 1}</title></rect><use xlink:href="#ahead" x="450.4442251822083" y="0" /><text text-anchor="middle" x="225.22211259110415" y="-4" transform="" filter="url(#glow)" style="fill: #fff" >broadcast {:message 1}</text><text text-anchor="middle" x="225.22211259110415" y="-4" transform="" >broadcast {:message 1}</text></g><g transform="translate(1087.5 730.0) rotate(177.4551956201869) " ><rect x="0" y="-2.5" height="5" width="446.4442251822083" fill="#81BFFC" ><title >n4 → c13 {:type "broadcast_ok", :in_reply_to 1, :msg_id 2}</title></rect><use xlink:href="#ahead" x="450.4442251822083" y="0" /><text text-anchor="middle" x="225.22211259110415" y="-4" transform="rotate(180 225.22211259110415 0)" filter="url(#glow)" style="fill: #fff" >broadcast_ok {}</text><text text-anchor="middle" x="225.22211259110415" y="-4" transform="rotate(180 225.22211259110415 0)" >broadcast_ok {}</text></g><g transform="translate(712.5 770.0) rotate(2.5448043798130957) " ><rect x="0" y="-2.5" height="5" width="446.4442251822083" fill="#81BFFC" ><title >c14 → n5 {:type "broadcast", :message 2, :msg_id 1}</title></rect><use xlink:href="#ahead" x="450.4442251822083" y="0" /><text text-anchor="middle" x="225.22211259110415" y="-4" transform="" filter="url(#glow)" style="fill: #fff" >broadcast {:message 2}</text><text text-anchor="middle" x="225.22211259110415" y="-4" transform="" >broadcast {:message 2}</text></g><g transform="translate(1162.5 810.0) rotate(177.4551956201869) " ><rect x="0" y="-2.5" height="5" width="446.4442251822083" fill="#81BFFC" ><title >n5 → c14 {:type "broadcast_ok", :in_reply_to 1, :msg_id 2}</title></rect><use xlink:href="#ahead" x="450.4442251822083" y="0" /><text text-anchor="middle" x="225.22211259110415" y="-4" transform="rotate(180 225.22211259110415 0)" filter="url(#glow)" style="fill: #fff" >broadcast_ok {}</text><text text-anchor="middle" x="225.22211259110415" y="-4" transform="rotate(180 225.22211259110415 0)" >broadcast_ok {}</text></g><g transform="translate(412.5 850.0) rotate(2.5448043798130957) " ><rect x="0" y="-2.5" height="5" width="446.4442251822083" fill="#81BFFC" ><title >c10 → n1 {:type "read", :msg_id 2}</title></rect><use xlink:href="#ahead" x="450.4442251822083" y="0" /><text text-anchor="middle" x="225.22211259110415" y="-4" transform="" filter="url(#glow)" style="fill: #fff" >read {}</text><text text-anchor="middle" x="225.22211259110415" y="-4" transform="" >read {}</text></g><g transform="translate(862.5 890.0) rotate(177.4551956201869) " ><rect x="0" y="-2.5" height="5" width="446.4442251822083" fill="#81BFFC" ><title >n1 → c10 {:type "read_ok", :messages [], :in_reply_to 2, :msg_id 3}</title></rect><use xlink:href="#ahead" x="450.4442251822083" y="0" /><text text-anchor="middle" x="225.22211259110415" y="-4" transform="rotate(180 225.22211259110415 0)" filter="url(#glow)" style="fill: #fff" >read_ok {:messages []}</text><text text-anchor="middle" x="225.22211259110415" y="-4" transform="rotate(180 225.22211259110415 0)" >read_ok {:messages []}</text></g><g transform="translate(412.5 930.0) rotate(2.5448043798130957) " ><rect x="0" y="-2.5" height="5" width="446.4442251822083" fill="#81BFFC" ><title >c10 → n1 {:type "broadcast", :message 3, :msg_id 3}</title></rect><use xlink:href="#ahead" x="450.4442251822083" y="0" /><text text-anchor="middle" x="225.22211259110415" y="-4" transform="" filter="url(#glow)" style="fill: #fff" >broadcast {:message 3}</text><text text-anchor="middle" x="225.22211259110415" y="-4" transform="" >broadcast {:message 3}</text></g><g transform="translate(862.5 970.0) rotate(177.4551956201869) " ><rect x="0" y="-2.5" height="5" width="446.4442251822083" fill="#81BFFC" ><title >n1 → c10 {:type "broadcast_ok", :in_reply_to 3, :msg_id 4}</title></rect><use xlink:href="#ahead" x="450.4442251822083" y="0" /><text text-anchor="middle" x="225.22211259110415" y="-4" transform="rotate(180 225.22211259110415 0)" filter="url(#glow)" style="fill: #fff" >broadcast_ok {}</text><text text-anchor="middle" x="225.22211259110415" y="-4" transform="rotate(180 225.22211259110415 0)" >broadcast_ok {}</text></g><g transform="translate(487.5 1010.0) rotate(2.5448043798130957) " ><rect x="0" y="-2.5" height="5" width="446.4442251822083" fill="#81BFFC" ><title >c11 → n2 {:type "broadcast", :message 4, :msg_id 2}</title></rect><use xlink:href="#ahead" x="450.4442251822083" y="0" /><text text-anchor="middle" x="225.22211259110415" y="-4" transform="" filter="url(#glow)" style="fill: #fff" >broadcast {:message 4}</text><text text-anchor="middle" x="225.22211259110415" y="-4" transform="" >broadcast {:message 4}</text></g><g transform="translate(562.5 1050.0) rotate(2.5448043798130957) " ><rect x="0" y="-2.5" height="5" width="446.4442251822083" fill="#81BFFC" ><title >c12 → n3 {:type "read", :msg_id 2}</title></rect><use xlink:href="#ahead" x="450.4442251822083" y="0" /><text text-anchor="middle" x="225.22211259110415" y="-4" transform="" filter="url(#glow)" style="fill: #fff" >read {}</text><text text-anchor="middle" x="225.22211259110415" y="-4" transform="" >read {}</text></g><g transform="translate(1012.5 1090.0) rotate(177.4551956201869) " ><rect x="0" y="-2.5" height="5" width="446.4442251822083" fill="#81BFFC" ><title >n3 → c12 {:type "read_ok", :messages [], :in_reply_to 2, :msg_id 3}</title></rect><use xlink:href="#ahead" x="450.4442251822083" y="0" /><text text-anchor="middle" x="225.22211259110415" y="-4" transform="rotate(180 225.22211259110415 0)" filter="url(#glow)" style="fill: #fff" >read_ok {:messages []}</text><text text-anchor="middle" x="225.22211259110415" y="-4" transform="rotate(180 225.22211259110415 0)" >read_ok {:messages []}</text></g><g transform="translate(637.5 1130.0) rotate(2.5448043798130957) " ><rect x="0" y="-2.5" height="5" width="446.4442251822083" fill="#81BFFC" ><title >c13 → n4 {:type "read", :msg_id 2}</title></rect><use xlink:href="#ahead" x="450.4442251822083" y="0" /><text text-anchor="middle" x="225.22211259110415" y="-4" transform="" filter="url(#glow)" style="fill: #fff" >read {}</text><text text-anchor="middle" x="225.22211259110415" y="-4" transform="" >read {}</text></g><g transform="translate(712.5 1170.0) rotate(2.5448043798130957) " ><rect x="0" y="-2.5" height="5" width="446.4442251822083" fill="#81BFFC" ><title >c14 → n5 {:type "read", :msg_id 2}</title></rect><use xlink:href="#ahead" x="450.4442251822083" y="0" /><text text-anchor="middle" x="225.22211259110415" y="-4" transform="" filter="url(#glow)" style="fill: #fff" >read {}</text><text text-anchor="middle" x="225.22211259110415" y="-4" transform="" >read {}</text></g><g transform="translate(412.5 1210.0) rotate(2.5448043798130957) " ><rect x="0" y="-2.5" height="5" width="446.4442251822083" fill="#81BFFC" ><title >c10 → n1 {:type "read", :msg_id 4}</title></rect><use xlink:href="#ahead" x="450.4442251822083" y="0" /><text text-anchor="middle" x="225.22211259110415" y="-4" transform="" filter="url(#glow)" style="fill: #fff" >read {}</text><text text-anchor="middle" x="225.22211259110415" y="-4" transform="" >read {}</text></g><g transform="translate(562.5 1250.0) rotate(2.5448043798130957) " ><rect x="0" y="-2.5" height="5" width="446.4442251822083" fill="#81BFFC" ><title >c12 → n3 {:type "read", :msg_id 3}</title></rect><use xlink:href="#ahead" x="450.4442251822083" y="0" /><text text-anchor="middle" x="225.22211259110415" y="-4" transform="" filter="url(#glow)" style="fill: #fff" >read {}</text><text text-anchor="middle" x="225.22211259110415" y="-4" transform="" >read {}</text></g><g transform="translate(1012.5 1290.0) rotate(177.4551956201869) " ><rect x="0" y="-2.5" height="5" width="446.4442251822083" fill="#81BFFC" ><title >n3 → c12 {:type "read_ok", :messages [], :in_reply_to 3, :msg_id 4}</title></rect><use xlink:href="#ahead" x="450.4442251822083" y="0" /><text text-anchor="middle" x="225.22211259110415" y="-4" transform="rotate(180 225.22211259110415 0)" filter="url(#glow)" style="fill: #fff" >read_ok {:messages []}</text><text text-anchor="middle" x="225.22211259110415" y="-4" transform="rotate(180 225.22211259110415 0)" >read_ok {:messages []}</text></g><g transform="translate(562.5 1330.0) rotate(2.5448043798130957) " ><rect x="0" y="-2.5" height="5" width="446.4442251822083" fill="#81BFFC" ><title >c12 → n3 {:type "read", :msg_id 4}</title></rect><use xlink:href="#ahead" x="450.4442251822083" y="0" /><text text-anchor="middle" x="225.22211259110415" y="-4" transform="" filter="url(#glow)" style="fill: #fff" >read {}</text><text text-anchor="middle" x="225.22211259110415" y="-4" transform="" >read {}</text></g><g transform="translate(1012.5 1370.0) rotate(177.4551956201869) " ><rect x="0" y="-2.5" height="5" width="446.4442251822083" fill="#81BFFC" ><title >n3 → c12 {:type "read_ok", :messages [], :in_reply_to 4, :msg_id 5}</title></rect><use xlink:href="#ahead" x="450.4442251822083" y="0" /><text text-anchor="middle" x="225.22211259110415" y="-4" transform="rotate(180 225.22211259110415 0)" filter="url(#glow)" style="fill: #fff" >read_ok {:messages []}</text><text text-anchor="middle" x="225.22211259110415" y="-4" transform="rotate(180 225.22211259110415 0)" >read_ok {:messages []}</text></g><g transform="translate(562.5 1410.0) rotate(2.5448043798130957) " ><rect x="0" y="-2.5" height="5" width="446.4442251822083" fill="#81BFFC" ><title >c12 → n3 {:type "read", :msg_id 5}</title></rect><use xlink:href="#ahead" x="450.4442251822083" y="0" /><text text-anchor="middle" x="225.22211259110415" y="-4" transform="" filter="url(#glow)" style="fill: #fff" >read {}</text><text text-anchor="middle" x="225.22211259110415" y="-4" transform="" >read {}</text></g><g transform="translate(1012.5 1450.0) rotate(177.4551956201869) " ><rect x="0" y="-2.5" height="5" width="446.4442251822083" fill="#81BFFC" ><title >n3 → c12 {:type "read_ok", :messages [], :in_reply_to 5, :msg_id 6}</title></rect><use xlink:href="#ahead" x="450.4442251822083" y="0" /><text text-anchor="middle" x="225.22211259110415" y="-4" transform="rotate(180 225.22211259110415 0)" filter="url(#glow)" style="fill: #fff" >read_ok {:messages []}</text><text text-anchor="middle" x="225.22211259110415" y="-4" transform="rotate(180 225.22211259110415 0)" >read_ok {:messages []}</text></g><g transform="translate(562.5 1490.0) rotate(2.5448043798130957) " ><rect x="0" y="-2.5" height="5" width="446.4442251822083" fill="#81BFFC" ><title >c12 → n3 {:type "broadcast", :message 5, :msg_id 6}</title></rect><use xlink:href="#ahead" x="450.4442251822083" y="0" /><text text-anchor="middle" x="225.22211259110415" y="-4" transform="" filter="url(#glow)" style="fill: #fff" >broadcast {:message 5}</text><text text-anchor="middle" x="225.22211259110415" y="-4" transform="" >broadcast {:message 5}</text></g><g transform="translate(1012.5 1530.0) rotate(177.4551956201869) " ><rect x="0" y="-2.5" height="5" width="446.4442251822083" fill="#81BFFC" ><title >n3 → c12 {:type "broadcast_ok", :in_reply_to 6, :msg_id 7}</title></rect><use xlink:href="#ahead" x="450.4442251822083" y="0" /><text text-anchor="middle" x="225.22211259110415" y="-4" transform="rotate(180 225.22211259110415 0)" filter="url(#glow)" style="fill: #fff" >broadcast_ok {}</text><text text-anchor="middle" x="225.22211259110415" y="-4" transform="rotate(180 225.22211259110415 0)" >broadcast_ok {}</text></g><g transform="translate(562.5 1570.0) rotate(2.5448043798130957) " ><rect x="0" y="-2.5" height="5" width="446.4442251822083" fill="#81BFFC" ><title >c12 → n3 {:type "read", :msg_id 7}</title></rect><use xlink:href="#ahead" x="450.4442251822083" y="0" /><text text-anchor="middle" x="225.22211259110415" y="-4" transform="" filter="url(#glow)" style="fill: #fff" >read {}</text><text text-anchor="middle" x="225.22211259110415" y="-4" transform="" >read {}</text></g><g transform="translate(562.5 1630.0) rotate(10.08059798754232) " ><rect x="0" y="-2.5" height="5" width="453.05579528105756" fill="#81BFFC" ><title >c12 → n3 {:type "read", :msg_id 8}</title></rect><use xlink:href="#ahead" x="457.05579528105756" y="0" /><text text-anchor="middle" x="228.52789764052878" y="-4" transform="" filter="url(#glow)" style="fill: #fff" >read {}</text><text text-anchor="middle" x="228.52789764052878" y="-4" transform="" >read {}</text></g><g transform="translate(412.5 1650.0) rotate(10.08059798754232) " ><rect x="0" y="-2.5" height="5" width="453.05579528105756" fill="#81BFFC" ><title >c10 → n1 {:type "read", :msg_id 5}</title></rect><use xlink:href="#ahead" x="457.05579528105756" y="0" /><text text-anchor="middle" x="228.52789764052878" y="-4" transform="" filter="url(#glow)" style="fill: #fff" >read {}</text><text text-anchor="middle" x="228.52789764052878" y="-4" transform="" >read {}</text></g><g transform="translate(787.5 1690.0) rotate(21.801409486351815) " ><rect x="0" y="-2.5" height="5" width="157.55494421403512" fill="#81BFFC" ><title >c15 → n2 {:type "read", :msg_id 1}</title></rect><use xlink:href="#ahead" x="161.55494421403512" y="0" /><text text-anchor="middle" x="80.77747210701756" y="-4" transform="" filter="url(#glow)" style="fill: #fff" >read {}</text><text text-anchor="middle" x="80.77747210701756" y="-4" transform="" >read {}</text></g><g transform="translate(637.5 1610.0) rotate(19.573125830410195) " ><rect x="0" y="-2.5" height="5" width="473.59815745038213" fill="#81BFFC" ><title >c13 → n4 {:type "read", :msg_id 3}</title></rect><use xlink:href="#ahead" x="477.59815745038213" y="0" /><text text-anchor="middle" x="238.79907872519107" y="-4" transform="" filter="url(#glow)" style="fill: #fff" >read {}</text><text text-anchor="middle" x="238.79907872519107" y="-4" transform="" >read {}</text></g><g transform="translate(712.5 1670.0) rotate(14.931417178137552) " ><rect x="0" y="-2.5" height="5" width="461.72524088780074" fill="#81BFFC" ><title >c14 → n5 {:type "read", :msg_id 3}</title></rect><use xlink:href="#ahead" x="465.72524088780074" y="0" /><text text-anchor="middle" x="232.86262044390037" y="-4" transform="" filter="url(#glow)" style="fill: #fff" >read {}</text><text text-anchor="middle" x="232.86262044390037" y="-4" transform="" >read {}</text></g></g></svg>