<?xml version="1.0" encoding="UTF-8"?><svg xmlns:svg="http://www.w3.org/2000/svg" xmlns="http://www.w3.org/2000/svg" xmlns:xlink="http://www.w3.org/1999/xlink" version="2.0" width="1200" height="420" ><style >
svg {
  font-family: Helvetica, Arial, sans-serif;
  font-size: 11px;
}
rect {
  stroke-linecap: butt;
  stroke-width: 3;
  stroke: #fff;
/*  stroke-opacity: 1; */
}
rect:hover {
  stroke: #fff;
/*  stroke-opacity: 1; /*
}
polygon { fill: #000; }</style><defs ><polygon id="ahead" points="0 0, -12 4, -12 -4" /><filter id="glow" x="0" y="0" ><feGaussianBlur in="SourceAlpha" stdDeviation="2" result="blurred" /><feFlood flood-color="#fff" /><feComposite operator="in" in2="blurred" /><feComponentTransfer ><feFuncA type="linear" slope="10" intercept="0" /></feComponentTransfer><feMerge ><feMergeNode /><feMergeNode in="SourceGraphic" /></feMerge></filter></defs><g ><text x="85.71429" y="20.0" text-anchor="middle" alignment-baseline="middle" fill="#000" >c1</text><text x="257.14285" y="20.0" text-anchor="middle" alignment-baseline="middle" fill="#000" >c2</text><text x="428.57144" y="20.0" text-anchor="middle" alignment-baseline="middle" fill="#000" >c3</text><text x="600.0" y="20.0" text-anchor="middle" alignment-baseline="middle" fill="#000" >c4</text><text x="771.4286" y="20.0" text-anchor="middle" alignment-baseline="middle" fill="#000" >c5</text><text x="942.8571" y="20.0" text-anchor="middle" alignment-baseline="middle" fill="#000" >c6</text><text x="1114.2858" y="20.0" text-anchor="middle" alignment-baseline="middle" fill="#000" >n0</text></g><g ><line stroke="#ccc" x1="85.71429" y1="30.0" x2="85.71429" y2="330.0" /><line stroke="#ccc" x1="257.14285" y1="30.0" x2="257.14285" y2="330.0" /><line stroke="#ccc" x1="428.57144" y1="30.0" x2="428.57144" y2="330.0" /><line stroke="#ccc" x1="600.0" y1="30.0" x2="600.0" y2="330.0" /><line stroke="#ccc" x1="771.4286" y1="30.0" x2="771.4286" y2="330.0" /><line stroke="#ccc" x1="942.8571" y1="30.0" x2="942.8571" y2="330.0" /><line stroke="#ccc" x1="1114.2858" y1="30.0" x2="1114.2858" y2="330.0" /></g><g ><g transform="translate(85.71429 50.0) rotate(1.1139441712696472) " ><rect x="0" y="-2.5" height="5" width="1024.7659058563993" fill="#81BFFC" ><title >c1 → n0 {:type "topology", :topology {"n0" []}, :msg_id 1}</title></rect><use xlink:href="#ahead" x="1028.7659058563993" y="0" /><text text-anchor="middle" x="514.3829529281996" y="-4" transform="" filter="url(#glow)" style="fill: #fff" >topology {:topology {"n0" []}}</text><text text-anchor="middle" x="514.3829529281996" y="-4" transform="" >topology {:topology {"n0" []}}</text></g><g transform="translate(1114.2858 90.0) rotate(178.88605582873035) " ><rect x="0" y="-2.5" height="5" width="1024.7659058563993" fill="#81BFFC" ><title >n0 → c1 {:type "topology_ok", :in_reply_to 1, :msg_id 0}</title></rect><use xlink:href="#ahead" x="1028.7659058563993" y="0" /><text text-anchor="middle" x="514.3829529281996" y="-4" transform="rotate(180 514.3829529281996 0)" filter="url(#glow)" style="fill: #fff" >topology_ok {}</text><text text-anchor="middle" x="514.3829529281996" y="-4" transform="rotate(180 514.3829529281996 0)" >topology_ok {}</text></g><g transform="translate(257.14285 130.0) rotate(1.3366588899793947) " ><rect x="0" y="-2.5" height="5" width="853.3762153856541" fill="#81BFFC" ><title >c2 → n0 {:type "broadcast", :message 0, :msg_id 1}</title></rect><use xlink:href="#ahead" x="857.3762153856541" y="0" /><text text-anchor="middle" x="428.68810769282703" y="-4" transform="" filter="url(#glow)" style="fill: #fff" >broadcast {:message 0}</text><text text-anchor="middle" x="428.68810769282703" y="-4" transform="" >broadcast {:message 0}</text></g><g transform="translate(428.57144 170.0) rotate(1.6706531758586012) " ><rect x="0" y="-2.5" height="5" width="682.0059295977268" fill="#81BFFC" ><title >c3 → n0 {:type "broadcast", :message 1, :msg_id 1}</title></rect><use xlink:href="#ahead" x="686.0059295977268" y="0" /><text text-anchor="middle" x="343.0029647988634" y="-4" transform="" filter="url(#glow)" style="fill: #fff" >broadcast {:message 1}</text><text text-anchor="middle" x="343.0029647988634" y="-4" transform="" >broadcast {:message 1}</text></g><g transform="translate(600.0 210.0) rotate(2.227046741094778) " ><rect x="0" y="-2.5" height="5" width="510.6745085284066" fill="#81BFFC" ><title >c4 → n0 {:type "broadcast", :message 2, :msg_id 1}</title></rect><use xlink:href="#ahead" x="514.6745085284066" y="0" /><text text-anchor="middle" x="257.3372542642033" y="-4" transform="" filter="url(#glow)" style="fill: #fff" >broadcast {:message 2}</text><text text-anchor="middle" x="257.3372542642033" y="-4" transform="" >broadcast {:message 2}</text></g><g transform="translate(771.4286 250.0) rotate(3.338470204925741) " ><rect x="0" y="-2.5" height="5" width="339.4400156125969" fill="#81BFFC" ><title >c5 → n0 {:type "broadcast", :message 3, :msg_id 1}</title></rect><use xlink:href="#ahead" x="343.4400156125969" y="0" /><text text-anchor="middle" x="171.72000780629844" y="-4" transform="" filter="url(#glow)" style="fill: #fff" >broadcast {:message 3}</text><text text-anchor="middle" x="171.72000780629844" y="-4" transform="" >broadcast {:message 3}</text></g><g transform="translate(942.8571 290.0) rotate(6.6544220271729095) " ><rect x="0" y="-2.5" height="5" width="168.59137292269375" fill="#81BFFC" ><title >c6 → n0 {:type "read", :msg_id 1}</title></rect><use xlink:href="#ahead" x="172.59137292269375" y="0" /><text text-anchor="middle" x="86.29568646134688" y="-4" transform="" filter="url(#glow)" style="fill: #fff" >read {}</text><text text-anchor="middle" x="86.29568646134688" y="-4" transform="" >read {}</text></g></g></svg>