<?xml version="1.0" encoding="UTF-8"?><svg xmlns:svg="http://www.w3.org/2000/svg" xmlns="http://www.w3.org/2000/svg" xmlns:xlink="http://www.w3.org/1999/xlink" version="2.0" width="1200" height="2700" ><style >
svg {
  font-family: Helvetica, Arial, sans-serif;
  font-size: 11px;
}
rect {
  stroke-linecap: butt;
  stroke-width: 3;
  stroke: #fff;
/*  stroke-opacity: 1; */
}
rect:hover {
  stroke: #fff;
/*  stroke-opacity: 1; /*
}
polygon { fill: #000; }</style><defs ><polygon id="ahead" points="0 0, -12 4, -12 -4" /><filter id="glow" x="0" y="0" ><feGaussianBlur in="SourceAlpha" stdDeviation="2" result="blurred" /><feFlood flood-color="#fff" /><feComposite operator="in" in2="blurred" /><feComponentTransfer ><feFuncA type="linear" slope="10" intercept="0" /></feComponentTransfer><feMerge ><feMergeNode /><feMergeNode in="SourceGraphic" /></feMerge></filter></defs><g ><text x="17.142857" y="20.0" text-anchor="middle" alignment-baseline="middle" fill="#000" >c5</text><text x="17.142857" y="1020.0" text-anchor="middle" alignment-baseline="middle" fill="#aaa" >c5</text><text x="17.142857" y="2020.0" text-anchor="middle" alignment-baseline="middle" fill="#aaa" >c5</text><text x="51.42857" y="20.0" text-anchor="middle" alignment-baseline="middle" fill="#000" >c6</text><text x="51.42857" y="1020.0" text-anchor="middle" alignment-baseline="middle" fill="#aaa" >c6</text><text x="51.42857" y="2020.0" text-anchor="middle" alignment-baseline="middle" fill="#aaa" >c6</text><text x="85.71429" y="20.0" text-anchor="middle" alignment-baseline="middle" fill="#000" >c7</text><text x="85.71429" y="1020.0" text-anchor="middle" alignment-baseline="middle" fill="#aaa" >c7</text><text x="85.71429" y="2020.0" text-anchor="middle" alignment-baseline="middle" fill="#aaa" >c7</text><text x="120.0" y="20.0" text-anchor="middle" alignment-baseline="middle" fill="#000" >c8</text><text x="120.0" y="1020.0" text-anchor="middle" alignment-baseline="middle" fill="#aaa" >c8</text><text x="120.0" y="2020.0" text-anchor="middle" alignment-baseline="middle" fill="#aaa" >c8</text><text x="154.28572" y="20.0" text-anchor="middle" alignment-baseline="middle" fill="#000" >c9</text><text x="154.28572" y="1020.0" text-anchor="middle" alignment-baseline="middle" fill="#aaa" >c9</text><text x="154.28572" y="2020.0" text-anchor="middle" alignment-baseline="middle" fill="#aaa" >c9</text><text x="188.57143" y="20.0" text-anchor="middle" alignment-baseline="middle" fill="#000" >c10</text><text x="188.57143" y="1020.0" text-anchor="middle" alignment-baseline="middle" fill="#aaa" >c10</text><text x="188.57143" y="2020.0" text-anchor="middle" alignment-baseline="middle" fill="#aaa" >c10</text><text x="222.85715" y="20.0" text-anchor="middle" alignment-baseline="middle" fill="#000" >c11</text><text x="222.85715" y="1020.0" text-anchor="middle" alignment-baseline="middle" fill="#aaa" >c11</text><text x="222.85715" y="2020.0" text-anchor="middle" alignment-baseline="middle" fill="#aaa" >c11</text><text x="257.14285" y="20.0" text-anchor="middle" alignment-baseline="middle" fill="#000" >c12</text><text x="257.14285" y="1020.0" text-anchor="middle" alignment-baseline="middle" fill="#aaa" >c12</text><text x="257.14285" y="2020.0" text-anchor="middle" alignment-baseline="middle" fill="#aaa" >c12</text><text x="291.42856" y="20.0" text-anchor="middle" alignment-baseline="middle" fill="#000" >c13</text><text x="291.42856" y="1020.0" text-anchor="middle" alignment-baseline="middle" fill="#aaa" >c13</text><text x="291.42856" y="2020.0" text-anchor="middle" alignment-baseline="middle" fill="#aaa" >c13</text><text x="325.7143" y="20.0" text-anchor="middle" alignment-baseline="middle" fill="#000" >c14</text><text x="325.7143" y="1020.0" text-anchor="middle" alignment-baseline="middle" fill="#aaa" >c14</text><text x="325.7143" y="2020.0" text-anchor="middle" alignment-baseline="middle" fill="#aaa" >c14</text><text x="360.0" y="20.0" text-anchor="middle" alignment-baseline="middle" fill="#000" >c15</text><text x="360.0" y="1020.0" text-anchor="middle" alignment-baseline="middle" fill="#aaa" >c15</text><text x="360.0" y="2020.0" text-anchor="middle" alignment-baseline="middle" fill="#aaa" >c15</text><text x="394.2857" y="20.0" text-anchor="middle" alignment-baseline="middle" fill="#000" >c16</text><text x="394.2857" y="1020.0" text-anchor="middle" alignment-baseline="middle" fill="#aaa" >c16</text><text x="394.2857" y="2020.0" text-anchor="middle" alignment-baseline="middle" fill="#aaa" >c16</text><text x="428.57144" y="20.0" text-anchor="middle" alignment-baseline="middle" fill="#000" >c17</text><text x="428.57144" y="1020.0" text-anchor="middle" alignment-baseline="middle" fill="#aaa" >c17</text><text x="428.57144" y="2020.0" text-anchor="middle" alignment-baseline="middle" fill="#aaa" >c17</text><text x="462.85715" y="20.0" text-anchor="middle" alignment-baseline="middle" fill="#000" >c18</text><text x="462.85715" y="1020.0" text-anchor="middle" alignment-baseline="middle" fill="#aaa" >c18</text><text x="462.85715" y="2020.0" text-anchor="middle" alignment-baseline="middle" fill="#aaa" >c18</text><text x="497.14285" y="20.0" text-anchor="middle" alignment-baseline="middle" fill="#000" >c19</text><text x="497.14285" y="1020.0" text-anchor="middle" alignment-baseline="middle" fill="#aaa" >c19</text><text x="497.14285" y="2020.0" text-anchor="middle" alignment-baseline="middle" fill="#aaa" >c19</text><text x="531.4286" y="20.0" text-anchor="middle" alignment-baseline="middle" fill="#000" >c20</text><text x="531.4286" y="1020.0" text-anchor="middle" alignment-baseline="middle" fill="#aaa" >c20</text><text x="531.4286" y="2020.0" text-anchor="middle" alignment-baseline="middle" fill="#aaa" >c20</text><text x="565.7143" y="20.0" text-anchor="middle" alignment-baseline="middle" fill="#000" >c21</text><text x="565.7143" y="1020.0" text-anchor="middle" alignment-baseline="middle" fill="#aaa" >c21</text><text x="565.7143" y="2020.0" text-anchor="middle" alignment-baseline="middle" fill="#aaa" >c21</text><text x="600.0" y="20.0" text-anchor="middle" alignment-baseline="middle" fill="#000" >c22</text><text x="600.0" y="1020.0" text-anchor="middle" alignment-baseline="middle" fill="#aaa" >c22</text><text x="600.0" y="2020.0" text-anchor="middle" alignment-baseline="middle" fill="#aaa" >c22</text><text x="634.2857" y="20.0" text-anchor="middle" alignment-baseline="middle" fill="#000" >c23</text><text x="634.2857" y="1020.0" text-anchor="middle" alignment-baseline="middle" fill="#aaa" >c23</text><text x="634.2857" y="2020.0" text-anchor="middle" alignment-baseline="middle" fill="#aaa" >c23</text><text x="668.5714" y="20.0" text-anchor="middle" alignment-baseline="middle" fill="#000" >c24</text><text x="668.5714" y="1020.0" text-anchor="middle" alignment-baseline="middle" fill="#aaa" >c24</text><text x="668.5714" y="2020.0" text-anchor="middle" alignment-baseline="middle" fill="#aaa" >c24</text><text x="702.8571" y="20.0" text-anchor="middle" alignment-baseline="middle" fill="#000" >c25</text><text x="702.8571" y="1020.0" text-anchor="middle" alignment-baseline="middle" fill="#aaa" >c25</text><text x="702.8571" y="2020.0" text-anchor="middle" alignment-baseline="middle" fill="#aaa" >c25</text><text x="737.1429" y="20.0" text-anchor="middle" alignment-baseline="middle" fill="#000" >c26</text><text x="737.1429" y="1020.0" text-anchor="middle" alignment-baseline="middle" fill="#aaa" >c26</text><text x="737.1429" y="2020.0" text-anchor="middle" alignment-baseline="middle" fill="#aaa" >c26</text><text x="771.4286" y="20.0" text-anchor="middle" alignment-baseline="middle" fill="#000" >c27</text><text x="771.4286" y="1020.0" text-anchor="middle" alignment-baseline="middle" fill="#aaa" >c27</text><text x="771.4286" y="2020.0" text-anchor="middle" alignment-baseline="middle" fill="#aaa" >c27</text><text x="805.7143" y="20.0" text-anchor="middle" alignment-baseline="middle" fill="#000" >c28</text><text x="805.7143" y="1020.0" text-anchor="middle" alignment-baseline="middle" fill="#aaa" >c28</text><text x="805.7143" y="2020.0" text-anchor="middle" alignment-baseline="middle" fill="#aaa" >c28</text><text x="840.0" y="20.0" text-anchor="middle" alignment-baseline="middle" fill="#000" >c29</text><text x="840.0" y="1020.0" text-anchor="middle" alignment-baseline="middle" fill="#aaa" >c29</text><text x="840.0" y="2020.0" text-anchor="middle" alignment-baseline="middle" fill="#aaa" >c29</text><text x="874.2857" y="20.0" text-anchor="middle" alignment-baseline="middle" fill="#000" >c30</text><text x="874.2857" y="1020.0" text-anchor="middle" alignment-baseline="middle" fill="#aaa" >c30</text><text x="874.2857" y="2020.0" text-anchor="middle" alignment-baseline="middle" fill="#aaa" >c30</text><text x="908.5714" y="20.0" text-anchor="middle" alignment-baseline="middle" fill="#000" >c31</text><text x="908.5714" y="1020.0" text-anchor="middle" alignment-baseline="middle" fill="#aaa" >c31</text><text x="908.5714" y="2020.0" text-anchor="middle" alignment-baseline="middle" fill="#aaa" >c31</text><text x="942.8571" y="20.0" text-anchor="middle" alignment-baseline="middle" fill="#000" >c32</text><text x="942.8571" y="1020.0" text-anchor="middle" alignment-baseline="middle" fill="#aaa" >c32</text><text x="942.8571" y="2020.0" text-anchor="middle" alignment-baseline="middle" fill="#aaa" >c32</text><text x="977.1429" y="20.0" text-anchor="middle" alignment-baseline="middle" fill="#000" >c33</text><text x="977.1429" y="1020.0" text-anchor="middle" alignment-baseline="middle" fill="#aaa" >c33</text><text x="977.1429" y="2020.0" text-anchor="middle" alignment-baseline="middle" fill="#aaa" >c33</text><text x="1011.4286" y="20.0" text-anchor="middle" alignment-baseline="middle" fill="#000" >c34</text><text x="1011.4286" y="1020.0" text-anchor="middle" alignment-baseline="middle" fill="#aaa" >c34</text><text x="1011.4286" y="2020.0" text-anchor="middle" alignment-baseline="middle" fill="#aaa" >c34</text><text x="1045.7142" y="20.0" text-anchor="middle" alignment-baseline="middle" fill="#000" >n1</text><text x="1045.7142" y="1020.0" text-anchor="middle" alignment-baseline="middle" fill="#aaa" >n1</text><text x="1045.7142" y="2020.0" text-anchor="middle" alignment-baseline="middle" fill="#aaa" >n1</text><text x="1080.0" y="20.0" text-anchor="middle" alignment-baseline="middle" fill="#000" >n2</text><text x="1080.0" y="1020.0" text-anchor="middle" alignment-baseline="middle" fill="#aaa" >n2</text><text x="1080.0" y="2020.0" text-anchor="middle" alignment-baseline="middle" fill="#aaa" >n2</text><text x="1114.2858" y="20.0" text-anchor="middle" alignment-baseline="middle" fill="#000" >n3</text><text x="1114.2858" y="1020.0" text-anchor="middle" alignment-baseline="middle" fill="#aaa" >n3</text><text x="1114.2858" y="2020.0" text-anchor="middle" alignment-baseline="middle" fill="#aaa" >n3</text><text x="1148.5714" y="20.0" text-anchor="middle" alignment-baseline="middle" fill="#000" >n4</text><text x="1148.5714" y="1020.0" text-anchor="middle" alignment-baseline="middle" fill="#aaa" >n4</text><text x="1148.5714" y="2020.0" text-anchor="middle" alignment-baseline="middle" fill="#aaa" >n4</text><text x="1182.8572" y="20.0" text-anchor="middle" alignment-baseline="middle" fill="#000" >n5</text><text x="1182.8572" y="1020.0" text-anchor="middle" alignment-baseline="middle" fill="#aaa" >n5</text><text x="1182.8572" y="2020.0" text-anchor="middle" alignment-baseline="middle" fill="#aaa" >n5</text></g><g ><line stroke="#ccc" x1="17.142857" y1="30.0" x2="17.142857" y2="2610.0" /><line stroke="#ccc" x1="51.42857" y1="30.0" x2="51.42857" y2="2610.0" /><line stroke="#ccc" x1="85.71429" y1="30.0" x2="85.71429" y2="2610.0" /><line stroke="#ccc" x1="120.0" y1="30.0" x2="120.0" y2="2610.0" /><line stroke="#ccc" x1="154.28572" y1="30.0" x2="154.28572" y2="2610.0" /><line stroke="#ccc" x1="188.57143" y1="30.0" x2="188.57143" y2="2610.0" /><line stroke="#ccc" x1="222.85715" y1="30.0" x2="222.85715" y2="2610.0" /><line stroke="#ccc" x1="257.14285" y1="30.0" x2="257.14285" y2="2610.0" /><line stroke="#ccc" x1="291.42856" y1="30.0" x2="291.42856" y2="2610.0" /><line stroke="#ccc" x1="325.7143" y1="30.0" x2="325.7143" y2="2610.0" /><line stroke="#ccc" x1="360.0" y1="30.0" x2="360.0" y2="2610.0" /><line stroke="#ccc" x1="394.2857" y1="30.0" x2="394.2857" y2="2610.0" /><line stroke="#ccc" x1="428.57144" y1="30.0" x2="428.57144" y2="2610.0" /><line stroke="#ccc" x1="462.85715" y1="30.0" x2="462.85715" y2="2610.0" /><line stroke="#ccc" x1="497.14285" y1="30.0" x2="497.14285" y2="2610.0" /><line stroke="#ccc" x1="531.4286" y1="30.0" x2="531.4286" y2="2610.0" /><line stroke="#ccc" x1="565.7143" y1="30.0" x2="565.7143" y2="2610.0" /><line stroke="#ccc" x1="600.0" y1="30.0" x2="600.0" y2="2610.0" /><line stroke="#ccc" x1="634.2857" y1="30.0" x2="634.2857" y2="2610.0" /><line stroke="#ccc" x1="668.5714" y1="30.0" x2="668.5714" y2="2610.0" /><line stroke="#ccc" x1="702.8571" y1="30.0" x2="702.8571" y2="2610.0" /><line stroke="#ccc" x1="737.1429" y1="30.0" x2="737.1429" y2="2610.0" /><line stroke="#ccc" x1="771.4286" y1="30.0" x2="771.4286" y2="2610.0" /><line stroke="#ccc" x1="805.7143" y1="30.0" x2="805.7143" y2="2610.0" /><line stroke="#ccc" x1="840.0" y1="30.0" x2="840.0" y2="2610.0" /><line stroke="#ccc" x1="874.2857" y1="30.0" x2="874.2857" y2="2610.0" /><line stroke="#ccc" x1="908.5714" y1="30.0" x2="908.5714" y2="2610.0" /><line stroke="#ccc" x1="942.8571" y1="30.0" x2="942.8571" y2="2610.0" /><line stroke="#ccc" x1="977.1429" y1="30.0" x2="977.1429" y2="2610.0" /><line stroke="#ccc" x1="1011.4286" y1="30.0" x2="1011.4286" y2="2610.0" /><line stroke="#ccc" x1="1045.7142" y1="30.0" x2="1045.7142" y2="2610.0" /><line stroke="#ccc" x1="1080.0" y1="30.0" x2="1080.0" y2="2610.0" /><line stroke="#ccc" x1="1114.2858" y1="30.0" x2="1114.2858" y2="2610.0" /><line stroke="#ccc" x1="1148.5714" y1="30.0" x2="1148.5714" y2="2610.0" /><line stroke="#ccc" x1="1182.8572" y1="30.0" x2="1182.8572" y2="2610.0" /></g><g ><g transform="translate(120.0 90.0) rotate(3.23100979456855) " ><rect x="0" y="-2.5" height="5" width="1060.5493789681532" fill="#81BFFC" ><title >c8 → n5 {:type "topology", :topology {"n1" ["n4" "n2"], "n2" ["n5" "n3" "n1"], "n3" ["n2"], "n4" ["n1" "n5"], "n5" ["n2" "n4"]}, :msg_id 1}</title></rect><use xlink:href="#ahead" x="1064.5493789681532" y="0" /><text text-anchor="middle" x="532.2746894840766" y="-4" transform="" filter="url(#glow)" style="fill: #fff" >topology {:topology {"n1" ["n4" "n2"], "n2" ["n…</text><text text-anchor="middle" x="532.2746894840766" y="-4" transform="" >topology {:topology {"n1" ["n4" "n2"], "n2" ["n…</text></g><g transform="translate(154.28572 130.0) rotate(2.303760380097604) " ><rect x="0" y="-2.5" height="5" width="991.0899627423115" fill="#81BFFC" ><title >c9 → n4 {:type "topology", :topology {"n1" ["n4" "n2"], "n2" ["n5" "n3" "n1"], "n3" ["n2"], "n4" ["n1" "n5"], "n5" ["n2" "n4"]}, :msg_id 1}</title></rect><use xlink:href="#ahead" x="995.0899627423115" y="0" /><text text-anchor="middle" x="497.54498137115576" y="-4" transform="" filter="url(#glow)" style="fill: #fff" >topology {:topology {"n1" ["n4" "n2"], "n2" ["n…</text><text text-anchor="middle" x="497.54498137115576" y="-4" transform="" >topology {:topology {"n1" ["n4" "n2"], "n2" ["n…</text></g><g transform="translate(85.71429 110.0) rotate(4.763641954512809) " ><rect x="0" y="-2.5" height="5" width="959.3275130820983" fill="#81BFFC" ><title >c7 → n1 {:type "topology", :topology {"n1" ["n4" "n2"], "n2" ["n5" "n3" "n1"], "n3" ["n2"], "n4" ["n1" "n5"], "n5" ["n2" "n4"]}, :msg_id 1}</title></rect><use xlink:href="#ahead" x="963.3275130820983" y="0" /><text text-anchor="middle" x="481.66375654104917" y="-4" transform="" filter="url(#glow)" style="fill: #fff" >topology {:topology {"n1" ["n4" "n2"], "n2" ["n…</text><text text-anchor="middle" x="481.66375654104917" y="-4" transform="" >topology {:topology {"n1" ["n4" "n2"], "n2" ["n…</text></g><g transform="translate(51.42857 50.0) rotate(8.560889143051924) " ><rect x="0" y="-2.5" height="5" width="1070.8327408514615" fill="#81BFFC" ><title >c6 → n3 {:type "topology", :topology {"n1" ["n4" "n2"], "n2" ["n5" "n3" "n1"], "n3" ["n2"], "n4" ["n1" "n5"], "n5" ["n2" "n4"]}, :msg_id 1}</title></rect><use xlink:href="#ahead" x="1074.8327408514615" y="0" /><text text-anchor="middle" x="537.4163704257307" y="-4" transform="" filter="url(#glow)" style="fill: #fff" >topology {:topology {"n1" ["n4" "n2"], "n2" ["n…</text><text text-anchor="middle" x="537.4163704257307" y="-4" transform="" >topology {:topology {"n1" ["n4" "n2"], "n2" ["n…</text></g><g transform="translate(17.142857 70.0) rotate(8.560889566840235) " ><rect x="0" y="-2.5" height="5" width="1070.8326880407346" fill="#81BFFC" ><title >c5 → n2 {:type "topology", :topology {"n1" ["n4" "n2"], "n2" ["n5" "n3" "n1"], "n3" ["n2"], "n4" ["n1" "n5"], "n5" ["n2" "n4"]}, :msg_id 1}</title></rect><use xlink:href="#ahead" x="1074.8326880407346" y="0" /><text text-anchor="middle" x="537.4163440203673" y="-4" transform="" filter="url(#glow)" style="fill: #fff" >topology {:topology {"n1" ["n4" "n2"], "n2" ["n…</text><text text-anchor="middle" x="537.4163440203673" y="-4" transform="" >topology {:topology {"n1" ["n4" "n2"], "n2" ["n…</text></g><g transform="translate(1114.2858 250.0) rotate(176.76899026329065) " ><rect x="0" y="-2.5" height="5" width="1060.5493980113206" fill="#81BFFC" ><title >n3 → c6 {:type "topology_ok", :in_reply_to 1, :msg_id 0}</title></rect><use xlink:href="#ahead" x="1064.5493980113206" y="0" /><text text-anchor="middle" x="532.2746990056603" y="-4" transform="rotate(180 532.2746990056603 0)" filter="url(#glow)" style="fill: #fff" >topology_ok {}</text><text text-anchor="middle" x="532.2746990056603" y="-4" transform="rotate(180 532.2746990056603 0)" >topology_ok {}</text></g><g transform="translate(1045.7142 270.0) rotate(176.42366542656393) " ><rect x="0" y="-2.5" height="5" width="957.8731192111256" fill="#81BFFC" ><title >n1 → c7 {:type "topology_ok", :in_reply_to 1, :msg_id 0}</title></rect><use xlink:href="#ahead" x="961.8731192111256" y="0" /><text text-anchor="middle" x="480.9365596055628" y="-4" transform="rotate(180 480.9365596055628 0)" filter="url(#glow)" style="fill: #fff" >topology_ok {}</text><text text-anchor="middle" x="480.9365596055628" y="-4" transform="rotate(180 480.9365596055628 0)" >topology_ok {}</text></g><g transform="translate(1148.5714 290.0) rotate(176.5466836663906) " ><rect x="0" y="-2.5" height="5" width="992.094390080827" fill="#81BFFC" ><title >n4 → c9 {:type "topology_ok", :in_reply_to 1, :msg_id 0}</title></rect><use xlink:href="#ahead" x="996.094390080827" y="0" /><text text-anchor="middle" x="498.0471950404135" y="-4" transform="rotate(180 498.0471950404135 0)" filter="url(#glow)" style="fill: #fff" >topology_ok {}</text><text text-anchor="middle" x="498.0471950404135" y="-4" transform="rotate(180 498.0471950404135 0)" >topology_ok {}</text></g><g transform="translate(1080.0 390.0) rotate(178.92198083744128) " ><rect x="0" y="-2.5" height="5" width="1059.0452987906353" fill="#81BFFC" ><title >n2 → c5 {:type "topology_ok", :in_reply_to 1, :msg_id 0}</title></rect><use xlink:href="#ahead" x="1063.0452987906353" y="0" /><text text-anchor="middle" x="531.5226493953177" y="-4" transform="rotate(180 531.5226493953177 0)" filter="url(#glow)" style="fill: #fff" >topology_ok {}</text><text text-anchor="middle" x="531.5226493953177" y="-4" transform="rotate(180 531.5226493953177 0)" >topology_ok {}</text></g><g transform="translate(1182.8572 370.0) rotate(176.76899020543146) " ><rect x="0" y="-2.5" height="5" width="1060.5493789681532" fill="#81BFFC" ><title >n5 → c8 {:type "topology_ok", :in_reply_to 1, :msg_id 0}</title></rect><use xlink:href="#ahead" x="1064.5493789681532" y="0" /><text text-anchor="middle" x="532.2746894840766" y="-4" transform="rotate(180 532.2746894840766 0)" filter="url(#glow)" style="fill: #fff" >topology_ok {}</text><text text-anchor="middle" x="532.2746894840766" y="-4" transform="rotate(180 532.2746894840766 0)" >topology_ok {}</text></g><g transform="translate(222.85715 450.0) rotate(2.783020945239942) " ><rect x="0" y="-2.5" height="5" width="819.8287347982831" fill="#81BFFC" ><title >c11 → n1 {:type "read", :msg_id 1}</title></rect><use xlink:href="#ahead" x="823.8287347982831" y="0" /><text text-anchor="middle" x="411.91436739914155" y="-4" transform="" filter="url(#glow)" style="fill: #fff" >read {}</text><text text-anchor="middle" x="411.91436739914155" y="-4" transform="" >read {}</text></g><g transform="translate(188.57143 470.0) rotate(2.569241013873991) " ><rect x="0" y="-2.5" height="5" width="888.3255582160044" fill="#81BFFC" ><title >c10 → n2 {:type "broadcast", :message 0, :msg_id 1}</title></rect><use xlink:href="#ahead" x="892.3255582160044" y="0" /><text text-anchor="middle" x="446.1627791080022" y="-4" transform="" filter="url(#glow)" style="fill: #fff" >broadcast {:message 0}</text><text text-anchor="middle" x="446.1627791080022" y="-4" transform="" >broadcast {:message 0}</text></g><g transform="translate(1045.7142 530.0) rotate(178.60766828686164) " ><rect x="0" y="-2.5" height="5" width="819.100105867652" fill="#81BFFC" ><title >n1 → c11 {:type "read_ok", :messages [], :in_reply_to 1, :msg_id 0}</title></rect><use xlink:href="#ahead" x="823.100105867652" y="0" /><text text-anchor="middle" x="411.550052933826" y="-4" transform="rotate(180 411.550052933826 0)" filter="url(#glow)" style="fill: #fff" >read_ok {:messages []}</text><text text-anchor="middle" x="411.550052933826" y="-4" transform="rotate(180 411.550052933826 0)" >read_ok {:messages []}</text></g><g transform="translate(257.14285 570.0) rotate(1.3366588899793947) " ><rect x="0" y="-2.5" height="5" width="853.3762153856541" fill="#81BFFC" ><title >c12 → n3 {:type "read", :msg_id 1}</title></rect><use xlink:href="#ahead" x="857.3762153856541" y="0" /><text text-anchor="middle" x="428.68810769282703" y="-4" transform="" filter="url(#glow)" style="fill: #fff" >read {}</text><text text-anchor="middle" x="428.68810769282703" y="-4" transform="" >read {}</text></g><g transform="translate(1114.2858 610.0) rotate(178.6633411100206) " ><rect x="0" y="-2.5" height="5" width="853.3762153856541" fill="#81BFFC" ><title >n3 → c12 {:type "read_ok", :messages [], :in_reply_to 1, :msg_id 0}</title></rect><use xlink:href="#ahead" x="857.3762153856541" y="0" /><text text-anchor="middle" x="428.68810769282703" y="-4" transform="rotate(180 428.68810769282703 0)" filter="url(#glow)" style="fill: #fff" >read_ok {:messages []}</text><text text-anchor="middle" x="428.68810769282703" y="-4" transform="rotate(180 428.68810769282703 0)" >read_ok {:messages []}</text></g><g transform="translate(291.42856 650.0) rotate(1.336658985125246) " ><rect x="0" y="-2.5" height="5" width="853.3761543671061" fill="#81BFFC" ><title >c13 → n4 {:type "read", :msg_id 1}</title></rect><use xlink:href="#ahead" x="857.3761543671061" y="0" /><text text-anchor="middle" x="428.68807718355305" y="-4" transform="" filter="url(#glow)" style="fill: #fff" >read {}</text><text text-anchor="middle" x="428.68807718355305" y="-4" transform="" >read {}</text></g><g transform="translate(1148.5714 690.0) rotate(178.66334101487476) " ><rect x="0" y="-2.5" height="5" width="853.3761543671061" fill="#81BFFC" ><title >n4 → c13 {:type "read_ok", :messages [], :in_reply_to 1, :msg_id 0}</title></rect><use xlink:href="#ahead" x="857.3761543671061" y="0" /><text text-anchor="middle" x="428.68807718355305" y="-4" transform="rotate(180 428.68807718355305 0)" filter="url(#glow)" style="fill: #fff" >read_ok {:messages []}</text><text text-anchor="middle" x="428.68807718355305" y="-4" transform="rotate(180 428.68807718355305 0)" >read_ok {:messages []}</text></g><g transform="translate(325.7143 730.0) rotate(1.3366589375523186) " ><rect x="0" y="-2.5" height="5" width="853.3761848763801" fill="#81BFFC" ><title >c14 → n5 {:type "read", :msg_id 1}</title></rect><use xlink:href="#ahead" x="857.3761848763801" y="0" /><text text-anchor="middle" x="428.68809243819004" y="-4" transform="" filter="url(#glow)" style="fill: #fff" >read {}</text><text text-anchor="middle" x="428.68809243819004" y="-4" transform="" >read {}</text></g><g transform="translate(1182.8572 770.0) rotate(178.66334106244767) " ><rect x="0" y="-2.5" height="5" width="853.3761848763801" fill="#81BFFC" ><title >n5 → c14 {:type "read_ok", :messages [], :in_reply_to 1, :msg_id 0}</title></rect><use xlink:href="#ahead" x="857.3761848763801" y="0" /><text text-anchor="middle" x="428.68809243819004" y="-4" transform="rotate(180 428.68809243819004 0)" filter="url(#glow)" style="fill: #fff" >read_ok {:messages []}</text><text text-anchor="middle" x="428.68809243819004" y="-4" transform="rotate(180 428.68809243819004 0)" >read_ok {:messages []}</text></g><g transform="translate(222.85715 810.0) rotate(1.3923317131383812) " ><rect x="0" y="-2.5" height="5" width="819.100105867652" fill="#81BFFC" ><title >c11 → n1 {:type "broadcast", :message 1, :msg_id 2}</title></rect><use xlink:href="#ahead" x="823.100105867652" y="0" /><text text-anchor="middle" x="411.550052933826" y="-4" transform="" filter="url(#glow)" style="fill: #fff" >broadcast {:message 1}</text><text text-anchor="middle" x="411.550052933826" y="-4" transform="" >broadcast {:message 1}</text></g><g transform="translate(257.14285 850.0) rotate(1.3366588899793947) " ><rect x="0" y="-2.5" height="5" width="853.3762153856541" fill="#81BFFC" ><title >c12 → n3 {:type "broadcast", :message 2, :msg_id 2}</title></rect><use xlink:href="#ahead" x="857.3762153856541" y="0" /><text text-anchor="middle" x="428.68810769282703" y="-4" transform="" filter="url(#glow)" style="fill: #fff" >broadcast {:message 2}</text><text text-anchor="middle" x="428.68810769282703" y="-4" transform="" >broadcast {:message 2}</text></g><g transform="translate(291.42856 890.0) rotate(1.336658985125246) " ><rect x="0" y="-2.5" height="5" width="853.3761543671061" fill="#81BFFC" ><title >c13 → n4 {:type "read", :msg_id 2}</title></rect><use xlink:href="#ahead" x="857.3761543671061" y="0" /><text text-anchor="middle" x="428.68807718355305" y="-4" transform="" filter="url(#glow)" style="fill: #fff" >read {}</text><text text-anchor="middle" x="428.68807718355305" y="-4" transform="" >read {}</text></g><g transform="translate(1148.5714 930.0) rotate(178.66334101487476) " ><rect x="0" y="-2.5" height="5" width="853.3761543671061" fill="#81BFFC" ><title >n4 → c13 {:type "read_ok", :messages [], :in_reply_to 2, :msg_id 0}</title></rect><use xlink:href="#ahead" x="857.3761543671061" y="0" /><text text-anchor="middle" x="428.68807718355305" y="-4" transform="rotate(180 428.68807718355305 0)" filter="url(#glow)" style="fill: #fff" >read_ok {:messages []}</text><text text-anchor="middle" x="428.68807718355305" y="-4" transform="rotate(180 428.68807718355305 0)" >read_ok {:messages []}</text></g><g transform="translate(291.42856 970.0) rotate(1.336658985125246) " ><rect x="0" y="-2.5" height="5" width="853.3761543671061" fill="#81BFFC" ><title >c13 → n4 {:type "broadcast", :message 3, :msg_id 3}</title></rect><use xlink:href="#ahead" x="857.3761543671061" y="0" /><text text-anchor="middle" x="428.68807718355305" y="-4" transform="" filter="url(#glow)" style="fill: #fff" >broadcast {:message 3}</text><text text-anchor="middle" x="428.68807718355305" y="-4" transform="" >broadcast {:message 3}</text></g><g transform="translate(325.7143 1010.0) rotate(1.3366589375523186) " ><rect x="0" y="-2.5" height="5" width="853.3761848763801" fill="#81BFFC" ><title >c14 → n5 {:type "broadcast", :message 4, :msg_id 2}</title></rect><use xlink:href="#ahead" x="857.3761848763801" y="0" /><text text-anchor="middle" x="428.68809243819004" y="-4" transform="" filter="url(#glow)" style="fill: #fff" >broadcast {:message 4}</text><text text-anchor="middle" x="428.68809243819004" y="-4" transform="" >broadcast {:message 4}</text></g><g transform="translate(360.0 1050.0) rotate(1.5911402711945872) " ><rect x="0" y="-2.5" height="5" width="716.2777242147642" fill="#81BFFC" ><title >c15 → n2 {:type "broadcast", :message 5, :msg_id 1}</title></rect><use xlink:href="#ahead" x="720.2777242147642" y="0" /><text text-anchor="middle" x="360.1388621073821" y="-4" transform="" filter="url(#glow)" style="fill: #fff" >broadcast {:message 5}</text><text text-anchor="middle" x="360.1388621073821" y="-4" transform="" >broadcast {:message 5}</text></g><g transform="translate(394.2857 1090.0) rotate(1.758528678053891) " ><rect x="0" y="-2.5" height="5" width="647.7354730819917" fill="#81BFFC" ><title >c16 → n1 {:type "broadcast", :message 6, :msg_id 1}</title></rect><use xlink:href="#ahead" x="651.7354730819917" y="0" /><text text-anchor="middle" x="325.86773654099585" y="-4" transform="" filter="url(#glow)" style="fill: #fff" >broadcast {:message 6}</text><text text-anchor="middle" x="325.86773654099585" y="-4" transform="" >broadcast {:message 6}</text></g><g transform="translate(428.57144 1130.0) rotate(1.6706531758586012) " ><rect x="0" y="-2.5" height="5" width="682.0059295977268" fill="#81BFFC" ><title >c17 → n3 {:type "read", :msg_id 1}</title></rect><use xlink:href="#ahead" x="686.0059295977268" y="0" /><text text-anchor="middle" x="343.0029647988634" y="-4" transform="" filter="url(#glow)" style="fill: #fff" >read {}</text><text text-anchor="middle" x="343.0029647988634" y="-4" transform="" >read {}</text></g><g transform="translate(1114.2858 1170.0) rotate(178.3293468241414) " ><rect x="0" y="-2.5" height="5" width="682.0059295977268" fill="#81BFFC" ><title >n3 → c17 {:type "read_ok", :messages ["2"], :in_reply_to 1, :msg_id 6}</title></rect><use xlink:href="#ahead" x="686.0059295977268" y="0" /><text text-anchor="middle" x="343.0029647988634" y="-4" transform="rotate(180 343.0029647988634 0)" filter="url(#glow)" style="fill: #fff" >read_ok {:messages ["2"]}</text><text text-anchor="middle" x="343.0029647988634" y="-4" transform="rotate(180 343.0029647988634 0)" >read_ok {:messages ["2"]}</text></g><g transform="translate(428.57144 1210.0) rotate(1.6706531758586012) " ><rect x="0" y="-2.5" height="5" width="682.0059295977268" fill="#81BFFC" ><title >c17 → n3 {:type "broadcast", :message 7, :msg_id 2}</title></rect><use xlink:href="#ahead" x="686.0059295977268" y="0" /><text text-anchor="middle" x="343.0029647988634" y="-4" transform="" filter="url(#glow)" style="fill: #fff" >broadcast {:message 7}</text><text text-anchor="middle" x="343.0029647988634" y="-4" transform="" >broadcast {:message 7}</text></g><g transform="translate(462.85715 1250.0) rotate(1.6706533244785093) " ><rect x="0" y="-2.5" height="5" width="682.0058685885151" fill="#81BFFC" ><title >c18 → n4 {:type "broadcast", :message 8, :msg_id 1}</title></rect><use xlink:href="#ahead" x="686.0058685885151" y="0" /><text text-anchor="middle" x="343.00293429425756" y="-4" transform="" filter="url(#glow)" style="fill: #fff" >broadcast {:message 8}</text><text text-anchor="middle" x="343.00293429425756" y="-4" transform="" >broadcast {:message 8}</text></g><g transform="translate(497.14285 1290.0) rotate(1.6706531758586012) " ><rect x="0" y="-2.5" height="5" width="682.0059295977268" fill="#81BFFC" ><title >c19 → n5 {:type "broadcast", :message 9, :msg_id 1}</title></rect><use xlink:href="#ahead" x="686.0059295977268" y="0" /><text text-anchor="middle" x="343.0029647988634" y="-4" transform="" filter="url(#glow)" style="fill: #fff" >broadcast {:message 9}</text><text text-anchor="middle" x="343.0029647988634" y="-4" transform="" >broadcast {:message 9}</text></g><g transform="translate(531.4286 1330.0) rotate(2.087983899039815) " ><rect x="0" y="-2.5" height="5" width="544.935873406216" fill="#81BFFC" ><title >c20 → n2 {:type "broadcast", :message 10, :msg_id 1}</title></rect><use xlink:href="#ahead" x="548.935873406216" y="0" /><text text-anchor="middle" x="274.467936703108" y="-4" transform="" filter="url(#glow)" style="fill: #fff" >broadcast {:message 10}</text><text text-anchor="middle" x="274.467936703108" y="-4" transform="" >broadcast {:message 10}</text></g><g transform="translate(565.7143 1370.0) rotate(2.385944333426707) " ><rect x="0" y="-2.5" height="5" width="476.41642499632934" fill="#81BFFC" ><title >c21 → n1 {:type "read", :msg_id 1}</title></rect><use xlink:href="#ahead" x="480.41642499632934" y="0" /><text text-anchor="middle" x="240.20821249816467" y="-4" transform="" filter="url(#glow)" style="fill: #fff" >read {}</text><text text-anchor="middle" x="240.20821249816467" y="-4" transform="" >read {}</text></g><g transform="translate(1045.7142 1410.0) rotate(177.61405566657328) " ><rect x="0" y="-2.5" height="5" width="476.41642499632934" fill="#81BFFC" ><title >n1 → c21 {:type "read_ok", :messages ["1" "6"], :in_reply_to 1, :msg_id 30}</title></rect><use xlink:href="#ahead" x="480.41642499632934" y="0" /><text text-anchor="middle" x="240.20821249816467" y="-4" transform="rotate(180 240.20821249816467 0)" filter="url(#glow)" style="fill: #fff" >read_ok {:messages ["1" "6"]}</text><text text-anchor="middle" x="240.20821249816467" y="-4" transform="rotate(180 240.20821249816467 0)" >read_ok {:messages ["1" "6"]}</text></g><g transform="translate(565.7143 1450.0) rotate(2.385944333426707) " ><rect x="0" y="-2.5" height="5" width="476.41642499632934" fill="#81BFFC" ><title >c21 → n1 {:type "read", :msg_id 2}</title></rect><use xlink:href="#ahead" x="480.41642499632934" y="0" /><text text-anchor="middle" x="240.20821249816467" y="-4" transform="" filter="url(#glow)" style="fill: #fff" >read {}</text><text text-anchor="middle" x="240.20821249816467" y="-4" transform="" >read {}</text></g><g transform="translate(1045.7142 1490.0) rotate(177.61405566657328) " ><rect x="0" y="-2.5" height="5" width="476.41642499632934" fill="#81BFFC" ><title >n1 → c21 {:type "read_ok", :messages ["1" "6"], :in_reply_to 2, :msg_id 30}</title></rect><use xlink:href="#ahead" x="480.41642499632934" y="0" /><text text-anchor="middle" x="240.20821249816467" y="-4" transform="rotate(180 240.20821249816467 0)" filter="url(#glow)" style="fill: #fff" >read_ok {:messages ["1" "6"]}</text><text text-anchor="middle" x="240.20821249816467" y="-4" transform="rotate(180 240.20821249816467 0)" >read_ok {:messages ["1" "6"]}</text></g><g transform="translate(565.7143 1530.0) rotate(2.385944333426707) " ><rect x="0" y="-2.5" height="5" width="476.41642499632934" fill="#81BFFC" ><title >c21 → n1 {:type "read", :msg_id 3}</title></rect><use xlink:href="#ahead" x="480.41642499632934" y="0" /><text text-anchor="middle" x="240.20821249816467" y="-4" transform="" filter="url(#glow)" style="fill: #fff" >read {}</text><text text-anchor="middle" x="240.20821249816467" y="-4" transform="" >read {}</text></g><g transform="translate(1045.7142 1570.0) rotate(177.61405566657328) " ><rect x="0" y="-2.5" height="5" width="476.41642499632934" fill="#81BFFC" ><title >n1 → c21 {:type "read_ok", :messages ["1" "6"], :in_reply_to 3, :msg_id 34}</title></rect><use xlink:href="#ahead" x="480.41642499632934" y="0" /><text text-anchor="middle" x="240.20821249816467" y="-4" transform="rotate(180 240.20821249816467 0)" filter="url(#glow)" style="fill: #fff" >read_ok {:messages ["1" "6"]}</text><text text-anchor="middle" x="240.20821249816467" y="-4" transform="rotate(180 240.20821249816467 0)" >read_ok {:messages ["1" "6"]}</text></g><g transform="translate(565.7143 1610.0) rotate(2.385944333426707) " ><rect x="0" y="-2.5" height="5" width="476.41642499632934" fill="#81BFFC" ><title >c21 → n1 {:type "broadcast", :message 11, :msg_id 4}</title></rect><use xlink:href="#ahead" x="480.41642499632934" y="0" /><text text-anchor="middle" x="240.20821249816467" y="-4" transform="" filter="url(#glow)" style="fill: #fff" >broadcast {:message 11}</text><text text-anchor="middle" x="240.20821249816467" y="-4" transform="" >broadcast {:message 11}</text></g><g transform="translate(600.0 1650.0) rotate(2.227046741094778) " ><rect x="0" y="-2.5" height="5" width="510.6745085284066" fill="#81BFFC" ><title >c22 → n3 {:type "broadcast", :message 12, :msg_id 1}</title></rect><use xlink:href="#ahead" x="514.6745085284066" y="0" /><text text-anchor="middle" x="257.3372542642033" y="-4" transform="" filter="url(#glow)" style="fill: #fff" >broadcast {:message 12}</text><text text-anchor="middle" x="257.3372542642033" y="-4" transform="" >broadcast {:message 12}</text></g><g transform="translate(634.2857 1690.0) rotate(2.227047005133379) " ><rect x="0" y="-2.5" height="5" width="510.67444753935115" fill="#81BFFC" ><title >c23 → n4 {:type "read", :msg_id 1}</title></rect><use xlink:href="#ahead" x="514.6744475393511" y="0" /><text text-anchor="middle" x="257.3372237696756" y="-4" transform="" filter="url(#glow)" style="fill: #fff" >read {}</text><text text-anchor="middle" x="257.3372237696756" y="-4" transform="" >read {}</text></g><g transform="translate(1148.5714 1730.0) rotate(177.7729529948666) " ><rect x="0" y="-2.5" height="5" width="510.67444753935115" fill="#81BFFC" ><title >n4 → c23 {:type "read_ok", :messages ["3" "8"], :in_reply_to 1, :msg_id 30}</title></rect><use xlink:href="#ahead" x="514.6744475393511" y="0" /><text text-anchor="middle" x="257.3372237696756" y="-4" transform="rotate(180 257.3372237696756 0)" filter="url(#glow)" style="fill: #fff" >read_ok {:messages ["3" "8"]}</text><text text-anchor="middle" x="257.3372237696756" y="-4" transform="rotate(180 257.3372237696756 0)" >read_ok {:messages ["3" "8"]}</text></g><g transform="translate(634.2857 1770.0) rotate(2.227047005133379) " ><rect x="0" y="-2.5" height="5" width="510.67444753935115" fill="#81BFFC" ><title >c23 → n4 {:type "broadcast", :message 13, :msg_id 2}</title></rect><use xlink:href="#ahead" x="514.6744475393511" y="0" /><text text-anchor="middle" x="257.3372237696756" y="-4" transform="" filter="url(#glow)" style="fill: #fff" >broadcast {:message 13}</text><text text-anchor="middle" x="257.3372237696756" y="-4" transform="" >broadcast {:message 13}</text></g><g transform="translate(668.5714 1810.0) rotate(2.227046741094778) " ><rect x="0" y="-2.5" height="5" width="510.6745085284066" fill="#81BFFC" ><title >c24 → n5 {:type "broadcast", :message 14, :msg_id 1}</title></rect><use xlink:href="#ahead" x="514.6745085284066" y="0" /><text text-anchor="middle" x="257.3372542642033" y="-4" transform="" filter="url(#glow)" style="fill: #fff" >broadcast {:message 14}</text><text text-anchor="middle" x="257.3372542642033" y="-4" transform="" >broadcast {:message 14}</text></g><g transform="translate(702.8571 1850.0) rotate(3.035568914907942) " ><rect x="0" y="-2.5" height="5" width="373.67281398642757" fill="#81BFFC" ><title >c25 → n2 {:type "broadcast", :message 15, :msg_id 1}</title></rect><use xlink:href="#ahead" x="377.67281398642757" y="0" /><text text-anchor="middle" x="188.83640699321379" y="-4" transform="" filter="url(#glow)" style="fill: #fff" >broadcast {:message 15}</text><text text-anchor="middle" x="188.83640699321379" y="-4" transform="" >broadcast {:message 15}</text></g><g transform="translate(737.1429 1890.0) rotate(3.708429097601033) " ><rect x="0" y="-2.5" height="5" width="305.21881912504995" fill="#81BFFC" ><title >c26 → n1 {:type "read", :msg_id 1}</title></rect><use xlink:href="#ahead" x="309.21881912504995" y="0" /><text text-anchor="middle" x="154.60940956252497" y="-4" transform="" filter="url(#glow)" style="fill: #fff" >read {}</text><text text-anchor="middle" x="154.60940956252497" y="-4" transform="" >read {}</text></g><g transform="translate(1045.7142 1930.0) rotate(176.29157090239897) " ><rect x="0" y="-2.5" height="5" width="305.21881912504995" fill="#81BFFC" ><title >n1 → c26 {:type "read_ok", :messages ["1" "11" "6"], :in_reply_to 1, :msg_id 66}</title></rect><use xlink:href="#ahead" x="309.21881912504995" y="0" /><text text-anchor="middle" x="154.60940956252497" y="-4" transform="rotate(180 154.60940956252497 0)" filter="url(#glow)" style="fill: #fff" >read_ok {:messages ["1" "11" "6"]}</text><text text-anchor="middle" x="154.60940956252497" y="-4" transform="rotate(180 154.60940956252497 0)" >read_ok {:messages ["1" "11" "6"]}</text></g><g transform="translate(737.1429 1970.0) rotate(3.708429097601033) " ><rect x="0" y="-2.5" height="5" width="305.21881912504995" fill="#81BFFC" ><title >c26 → n1 {:type "broadcast", :message 16, :msg_id 2}</title></rect><use xlink:href="#ahead" x="309.21881912504995" y="0" /><text text-anchor="middle" x="154.60940956252497" y="-4" transform="" filter="url(#glow)" style="fill: #fff" >broadcast {:message 16}</text><text text-anchor="middle" x="154.60940956252497" y="-4" transform="" >broadcast {:message 16}</text></g><g transform="translate(771.4286 2010.0) rotate(3.338470204925741) " ><rect x="0" y="-2.5" height="5" width="339.4400156125969" fill="#81BFFC" ><title >c27 → n3 {:type "broadcast", :message 17, :msg_id 1}</title></rect><use xlink:href="#ahead" x="343.4400156125969" y="0" /><text text-anchor="middle" x="171.72000780629844" y="-4" transform="" filter="url(#glow)" style="fill: #fff" >broadcast {:message 17}</text><text text-anchor="middle" x="171.72000780629844" y="-4" transform="" >broadcast {:message 17}</text></g><g transform="translate(805.7143 2050.0) rotate(3.3384707978933563) " ><rect x="0" y="-2.5" height="5" width="339.43995468102094" fill="#81BFFC" ><title >c28 → n4 {:type "read", :msg_id 1}</title></rect><use xlink:href="#ahead" x="343.43995468102094" y="0" /><text text-anchor="middle" x="171.71997734051047" y="-4" transform="" filter="url(#glow)" style="fill: #fff" >read {}</text><text text-anchor="middle" x="171.71997734051047" y="-4" transform="" >read {}</text></g><g transform="translate(1148.5714 2090.0) rotate(176.66152920210666) " ><rect x="0" y="-2.5" height="5" width="339.43995468102094" fill="#81BFFC" ><title >n4 → c28 {:type "read_ok", :messages ["13" "3" "8"], :in_reply_to 1, :msg_id 64}</title></rect><use xlink:href="#ahead" x="343.43995468102094" y="0" /><text text-anchor="middle" x="171.71997734051047" y="-4" transform="rotate(180 171.71997734051047 0)" filter="url(#glow)" style="fill: #fff" >read_ok {:messages ["13" "3" "8"]}</text><text text-anchor="middle" x="171.71997734051047" y="-4" transform="rotate(180 171.71997734051047 0)" >read_ok {:messages ["13" "3" "8"]}</text></g><g transform="translate(805.7143 2130.0) rotate(3.3384707978933563) " ><rect x="0" y="-2.5" height="5" width="339.43995468102094" fill="#81BFFC" ><title >c28 → n4 {:type "broadcast", :message 18, :msg_id 2}</title></rect><use xlink:href="#ahead" x="343.43995468102094" y="0" /><text text-anchor="middle" x="171.71997734051047" y="-4" transform="" filter="url(#glow)" style="fill: #fff" >broadcast {:message 18}</text><text text-anchor="middle" x="171.71997734051047" y="-4" transform="" >broadcast {:message 18}</text></g><g transform="translate(840.0 2170.0) rotate(3.338470204925741) " ><rect x="0" y="-2.5" height="5" width="339.4400156125969" fill="#81BFFC" ><title >c29 → n5 {:type "broadcast", :message 19, :msg_id 1}</title></rect><use xlink:href="#ahead" x="343.4400156125969" y="0" /><text text-anchor="middle" x="171.72000780629844" y="-4" transform="" filter="url(#glow)" style="fill: #fff" >broadcast {:message 19}</text><text text-anchor="middle" x="171.72000780629844" y="-4" transform="" >broadcast {:message 19}</text></g><g transform="translate(942.8571 2210.0) rotate(14.036240039440186) " ><rect x="0" y="-2.5" height="5" width="243.38639674985916" fill="#81BFFC" ><title >c32 → n5 {:type "read", :msg_id 1}</title></rect><use xlink:href="#ahead" x="247.38639674985916" y="0" /><text text-anchor="middle" x="123.69319837492958" y="-4" transform="" filter="url(#glow)" style="fill: #fff" >read {}</text><text text-anchor="middle" x="123.69319837492958" y="-4" transform="" >read {}</text></g><g transform="translate(908.5714 2230.0) rotate(23.62938308134604) " ><rect x="0" y="-2.5" height="5" width="145.69353258902274" fill="#81BFFC" ><title >c31 → n1 {:type "read", :msg_id 1}</title></rect><use xlink:href="#ahead" x="149.69353258902274" y="0" /><text text-anchor="middle" x="74.84676629451137" y="-4" transform="" filter="url(#glow)" style="fill: #fff" >read {}</text><text text-anchor="middle" x="74.84676629451137" y="-4" transform="" >read {}</text></g><g transform="translate(874.2857 2250.0) rotate(14.036240039440186) " ><rect x="0" y="-2.5" height="5" width="243.38639674985916" fill="#81BFFC" ><title >c30 → n3 {:type "read", :msg_id 1}</title></rect><use xlink:href="#ahead" x="247.38639674985916" y="0" /><text text-anchor="middle" x="123.69319837492958" y="-4" transform="" filter="url(#glow)" style="fill: #fff" >read {}</text><text text-anchor="middle" x="123.69319837492958" y="-4" transform="" >read {}</text></g><g transform="translate(977.1429 2330.0) rotate(11.003543581794558) " ><rect x="0" y="-2.5" height="5" width="100.78352187093496" fill="#81BFFC" ><title >c33 → n2 {:type "read", :msg_id 1}</title></rect><use xlink:href="#ahead" x="104.78352187093496" y="0" /><text text-anchor="middle" x="52.39176093546748" y="-4" transform="" filter="url(#glow)" style="fill: #fff" >read {}</text><text text-anchor="middle" x="52.39176093546748" y="-4" transform="" >read {}</text></g><g transform="translate(1011.4286 2370.0) rotate(8.297147050534203) " ><rect x="0" y="-2.5" height="5" width="134.59348360937034" fill="#81BFFC" ><title >c34 → n4 {:type "read", :msg_id 1}</title></rect><use xlink:href="#ahead" x="138.59348360937034" y="0" /><text text-anchor="middle" x="69.29674180468517" y="-4" transform="" filter="url(#glow)" style="fill: #fff" >read {}</text><text text-anchor="middle" x="69.29674180468517" y="-4" transform="" >read {}</text></g><g transform="translate(1114.2858 2430.0) rotate(165.9637599605598) " ><rect x="0" y="-2.5" height="5" width="243.38639674985916" fill="#81BFFC" ><title >n3 → c30 {:type "read_ok", :messages ["12" "17" "2" "7"], :in_reply_to 1, :msg_id 94}</title></rect><use xlink:href="#ahead" x="247.38639674985916" y="0" /><text text-anchor="middle" x="123.69319837492958" y="-4" transform="rotate(180 123.69319837492958 0)" filter="url(#glow)" style="fill: #fff" >read_ok {:messages ["12" "17" "2" "7"]}</text><text text-anchor="middle" x="123.69319837492958" y="-4" transform="rotate(180 123.69319837492958 0)" >read_ok {:messages ["12" "17" "2" "7"]}</text></g><g transform="translate(1080.0 2410.0) rotate(135.80692217245627) " ><rect x="0" y="-2.5" height="5" width="139.45586936642468" fill="#81BFFC" ><title >n2 → c33 {:type "read_ok", :messages ["0" "10" "15" "5"], :in_reply_to 1, :msg_id 294}</title></rect><use xlink:href="#ahead" x="143.45586936642468" y="0" /><text text-anchor="middle" x="71.72793468321234" y="-4" transform="rotate(180 71.72793468321234 0)" filter="url(#glow)" style="fill: #fff" >read_ok {:messages ["0" "10" "15" "5"]}</text><text text-anchor="middle" x="71.72793468321234" y="-4" transform="rotate(180 71.72793468321234 0)" >read_ok {:messages ["0" "10" "15" "5"]}</text></g><g transform="translate(1148.5714 2470.0) rotate(149.7435564946566) " ><rect x="0" y="-2.5" height="5" width="154.77075832463862" fill="#81BFFC" ><title >n4 → c34 {:type "read_ok", :messages ["13" "18" "3" "8"], :in_reply_to 1, :msg_id 188}</title></rect><use xlink:href="#ahead" x="158.77075832463862" y="0" /><text text-anchor="middle" x="79.38537916231931" y="-4" transform="rotate(180 79.38537916231931 0)" filter="url(#glow)" style="fill: #fff" >read_ok {:messages ["13" "18" "3" "8"]}</text><text text-anchor="middle" x="79.38537916231931" y="-4" transform="rotate(180 79.38537916231931 0)" >read_ok {:messages ["13" "18" "3" "8"]}</text></g><g transform="translate(1045.7142 2450.0) rotate(138.814067613228) " ><rect x="0" y="-2.5" height="5" width="178.2310448276605" fill="#81BFFC" ><title >n1 → c31 {:type "read_ok", :messages ["1" "11" "16" "6"], :in_reply_to 1, :msg_id 188}</title></rect><use xlink:href="#ahead" x="182.2310448276605" y="0" /><text text-anchor="middle" x="91.11552241383025" y="-4" transform="rotate(180 91.11552241383025 0)" filter="url(#glow)" style="fill: #fff" >read_ok {:messages ["1" "11" "16" "6"]}</text><text text-anchor="middle" x="91.11552241383025" y="-4" transform="rotate(180 91.11552241383025 0)" >read_ok {:messages ["1" "11" "16" "6"]}</text></g><g transform="translate(1182.8572 2530.0) rotate(165.9637599605598) " ><rect x="0" y="-2.5" height="5" width="243.38639674985916" fill="#81BFFC" ><title >n5 → c32 {:type "read_ok", :messages ["14" "19" "4" "9"], :in_reply_to 1, :msg_id 180}</title></rect><use xlink:href="#ahead" x="247.38639674985916" y="0" /><text text-anchor="middle" x="123.69319837492958" y="-4" transform="rotate(180 123.69319837492958 0)" filter="url(#glow)" style="fill: #fff" >read_ok {:messages ["14" "19" "4" "9"]}</text><text text-anchor="middle" x="123.69319837492958" y="-4" transform="rotate(180 123.69319837492958 0)" >read_ok {:messages ["14" "19" "4" "9"]}</text></g></g></svg>